<?xml version="1.0" encoding="utf-8"?>
<!-- Generator: Adobe Illustrator 26.0.2, SVG Export Plug-In . SVG Version: 6.00 Build 0)  -->
<!DOCTYPE svg PUBLIC "-//W3C//DTD SVG 1.1//EN" "http://www.w3.org/Graphics/SVG/1.1/DTD/svg11.dtd" [
	<!ENTITY ns_extend "http://ns.adobe.com/Extensibility/1.0/">
	<!ENTITY ns_ai "http://ns.adobe.com/AdobeIllustrator/10.0/">
	<!ENTITY ns_graphs "http://ns.adobe.com/Graphs/1.0/">
	<!ENTITY ns_vars "http://ns.adobe.com/Variables/1.0/">
	<!ENTITY ns_imrep "http://ns.adobe.com/ImageReplacement/1.0/">
	<!ENTITY ns_sfw "http://ns.adobe.com/SaveForWeb/1.0/">
	<!ENTITY ns_custom "http://ns.adobe.com/GenericCustomNamespace/1.0/">
	<!ENTITY ns_adobe_xpath "http://ns.adobe.com/XPath/1.0/">
]>
<svg version="1.1" id="Layer_1" xmlns:x="&ns_extend;" xmlns:i="&ns_ai;" xmlns:graph="&ns_graphs;"
	 xmlns="http://www.w3.org/2000/svg" xmlns:xlink="http://www.w3.org/1999/xlink" x="0px" y="0px" viewBox="0 0 1082 167"
	 style="enable-background:new 0 0 1082 167;" xml:space="preserve">
<style type="text/css">
	.st0{fill:#009FE3;}
	.st1{fill:#0090C2;}
</style>
<metadata>
	<x:xmpmeta  xmlns:x="adobe:ns:meta/">
		<rdf:RDF  xmlns:rdf="http://www.w3.org/1999/02/22-rdf-syntax-ns#">
			
				<rdf:Description  rdf:about="" xmlns:dc="http://purl.org/dc/elements/1.1/" xmlns:illustrator="http://ns.adobe.com/illustrator/1.0/" xmlns:pdf="http://ns.adobe.com/pdf/1.3/" xmlns:stDim="http://ns.adobe.com/xap/1.0/sType/Dimensions#" xmlns:stEvt="http://ns.adobe.com/xap/1.0/sType/ResourceEvent#" xmlns:stRef="http://ns.adobe.com/xap/1.0/sType/ResourceRef#" xmlns:xmp="http://ns.adobe.com/xap/1.0/" xmlns:xmpG="http://ns.adobe.com/xap/1.0/g/" xmlns:xmpGImg="http://ns.adobe.com/xap/1.0/g/img/" xmlns:xmpMM="http://ns.adobe.com/xap/1.0/mm/" xmlns:xmpTPg="http://ns.adobe.com/xap/1.0/t/pg/">
				<dc:format>image/svg+xml</dc:format>
				<dc:title>
					<rdf:Alt>
						<rdf:li>Print</rdf:li>
					</rdf:Alt>
				</dc:title>
				<xmp:MetadataDate>2022-07-04T00:04:09+03:00</xmp:MetadataDate>
				<xmp:ModifyDate>2022-07-04T00:04:09+03:00</xmp:ModifyDate>
				<xmp:CreateDate>2022-07-04T00:04:09+03:00</xmp:CreateDate>
				<xmp:CreatorTool>Adobe Illustrator 26.0 (Windows)</xmp:CreatorTool>
				<xmp:Thumbnails>
					<rdf:Alt>
						<rdf:li  rdf:parseType="Resource">
							<xmpGImg:width>256</xmpGImg:width>
							<xmpGImg:height>24</xmpGImg:height>
							<xmpGImg:format>JPEG</xmpGImg:format>
							<xmpGImg:image>/9j/4AAQSkZJRgABAgEASABIAAD/7QAsUGhvdG9zaG9wIDMuMAA4QklNA+0AAAAAABAASAAAAAEA
AQBIAAAAAQAB/+4ADkFkb2JlAGTAAAAAAf/bAIQABgQEBAUEBgUFBgkGBQYJCwgGBggLDAoKCwoK
DBAMDAwMDAwQDA4PEA8ODBMTFBQTExwbGxscHx8fHx8fHx8fHwEHBwcNDA0YEBAYGhURFRofHx8f
Hx8fHx8fHx8fHx8fHx8fHx8fHx8fHx8fHx8fHx8fHx8fHx8fHx8fHx8fHx8f/8AAEQgAGAEAAwER
AAIRAQMRAf/EAaIAAAAHAQEBAQEAAAAAAAAAAAQFAwIGAQAHCAkKCwEAAgIDAQEBAQEAAAAAAAAA
AQACAwQFBgcICQoLEAACAQMDAgQCBgcDBAIGAnMBAgMRBAAFIRIxQVEGE2EicYEUMpGhBxWxQiPB
UtHhMxZi8CRygvElQzRTkqKyY3PCNUQnk6OzNhdUZHTD0uIIJoMJChgZhJRFRqS0VtNVKBry4/PE
1OT0ZXWFlaW1xdXl9WZ2hpamtsbW5vY3R1dnd4eXp7fH1+f3OEhYaHiImKi4yNjo+Ck5SVlpeYmZ
qbnJ2en5KjpKWmp6ipqqusra6voRAAICAQIDBQUEBQYECAMDbQEAAhEDBCESMUEFURNhIgZxgZEy
obHwFMHR4SNCFVJicvEzJDRDghaSUyWiY7LCB3PSNeJEgxdUkwgJChgZJjZFGidkdFU38qOzwygp
0+PzhJSktMTU5PRldYWVpbXF1eX1RlZmdoaWprbG1ub2R1dnd4eXp7fH1+f3OEhYaHiImKi4yNjo
+DlJWWl5iZmpucnZ6fkqOkpaanqKmqq6ytrq+v/aAAwDAQACEQMRAD8A6hr3mDX/ADl5im8v6Fcf
UtLtOZurrlwDxp8DyOymrJU0VB16n/J6PT6fHpcQy5BxTPIfo9/efl58Vq9Zm1+c4MJ4Mcbs3zrY
k+XcOvM+RBpEU+uyJo1k2k6deWUjKurpSGW6cEiL0aBZDyIqSi9PuObmkMQ8SXHKMv4eYj330+br
8EZag+DDwsc4fxjYyPSuu/kOXyM2/LrzjqsuoXHlfXyTqlnyWKdjVn9P7SM37Rp8St3Fa++p7S0U
BEZsX0S/S77sXtPIch02f+8jyPfXQ95631G7OZdTsopDHJJxdeo4sf1DNK9OqR3VvJ6nB6+kSHG9
RTFVJtVsFCky0Diq/C24qR4eIxVr9K2HDn6vw1pXi3Xr4YqqR31pJG0iSAogq/WoHy64qti1Oxlk
EcctXboOLD9YxVyanYvJ6aygt0Gxp99KYqs/TGnf7+/4Vv6YqjFYMoYdCKjFXYq7FXYq7FXYq7FX
Yq7FWnkRBydgq9KsaD8cVbBBrQ1p1xV2KrIpo5C4Q1MbcW+YxVYby1EnpGVQ9aca9/DFVbFXYqtE
kZkMYYcwKle9MVXYq7FVryRx05sF5Hite5PbFV2KvCRb6jqlytl5cgFtqVjpDW2rqSEe5FRFLEEI
IZhWlT4ddlzrzKOMcWU3GWS4+XUH8frfOownmPBpxw5IYuGfTi6EV1/HcEJHZ3Wq6hDpkBl/fSBb
LSVWYPpi+opMrBlVKKv7Qb4683o2WGYxxMzW3OW3r25fjlyGzUMUs0xjje52h6v3W435Vy636vql
UmTeSfRt/Mg0Was2u2urSzXmo8vUM0S206Elqkj4m3B7tvvXMHXXLF4g2xmAAHceKP4+Dtey+GOc
YjvljlkZS52OGY+/nfU970W8uYU1SJmUlYgwkotdyDT9ec09qh1t7gfWbmCvNJHVk/mQ4qrcP+df
+z8Xy3/vcVVNQ4pHZOV+FXVmoOwAriqhJ+/luLiCMpCIWUkinJvlireny7pG0rvVSPR9MD9npyri
qHt2K3EUcSmSj7wyIKr03riqZOg/TMfw/D6Pht1OKou4+tcR9X4cq7+pWlPoxVSvPrf6PelPrHHf
06+O9K79MVS9GhR+dhzCpFIZya0qFqteXeuKrY9R1AxyFGMpEYYngBwJIG1Ou2Krre81CVY1EtOc
nH1OIO1PcDFVO5lEsEazryuCShmIPwqD1oMVXS3lzDJFFasRAqr6VVPx+PavXFVyahetd8BIW/el
PS4inGu/xAdsVWW2o6g7LRzK5D1j4ACgGxqPfFVNrq8nt5PVPNEKsxp9k16bAYqivrFw0r+g3ASz
qocIPsleu4xVG6dLM8DCY8nR2TlSlaYqssgxN6FNGMrUPvTFUuja1S0NtLbs13y3WlGJr1Db9sVX
XUkySyLI8sUihfqsaklTt+OKuk+uSG5Z5ZEeJUYIpIHIgV2xVcp4X6vK8gaWNWUgndjTY+2Kqdbl
NO+sNNKzyHhTkfhFevfwxVYtxefV2XnJ6KyDm4qWCnwJoaYqvmq1mkvqTPEkwozbfD4jc9PHFWrm
4kW6QxSyuhCemtWDHb3BBrirHfOH5dX0uqjzB5Zm+qaoGMksat6fJyKF0bpVv2lbZvHrXdaLtKIh
4WYXB5jtPsSZyePpjw5OZHKz3jzPW9j95E3k7zEgE+kpq8HmRqpfahcS26xSpJQN8azM3w7Facj+
FMsa3Edp+GcXQAGx/sf1OAezM4F4hlGf+KUjGiDz34yfdz+6ph5B8gQeWIZJ5pBcancKFllUEKi7
EoldzVhUseu2wzWdodonOaAqAd12P2MNIDIniyS+Q8gy7Na7x2KuxV2KuxV2KuxV2KuxV2KrZEWS
No2+y4Kn5EUxV0aLHGsa/ZQBR8gKYquxV2KuxVTgt44Q4SvxsXavicVdBBHBEsUdeC1pXfqa4qqY
q7FXYq0qqteIAqamnc4q3irsVdirsVdirsVdirsVf//Z
								</xmpGImg:image>
						</rdf:li>
					</rdf:Alt>
				</xmp:Thumbnails>
				<xmpMM:InstanceID>xmp.iid:edb94459-ef58-2f4c-bfd1-290df25c9211</xmpMM:InstanceID>
				<xmpMM:DocumentID>xmp.did:d5f812ef-9756-6347-ba9c-4f31f0e913c0</xmpMM:DocumentID>
				<xmpMM:OriginalDocumentID>uuid:5D20892493BFDB11914A8590D31508C8</xmpMM:OriginalDocumentID>
				<xmpMM:RenditionClass>proof:pdf</xmpMM:RenditionClass>
				<xmpMM:DerivedFrom  rdf:parseType="Resource">
					<stRef:instanceID>uuid:0303dab0-b584-4407-a0b1-e62becfc6bf4</stRef:instanceID>
					<stRef:documentID>xmp.did:72c1bea1-6a45-a34d-9dab-0846f32f0424</stRef:documentID>
					<stRef:originalDocumentID>uuid:5D20892493BFDB11914A8590D31508C8</stRef:originalDocumentID>
					<stRef:renditionClass>proof:pdf</stRef:renditionClass>
				</xmpMM:DerivedFrom>
				<xmpMM:History>
					<rdf:Seq>
						<rdf:li  rdf:parseType="Resource">
							<stEvt:action>saved</stEvt:action>
							<stEvt:instanceID>xmp.iid:d5f812ef-9756-6347-ba9c-4f31f0e913c0</stEvt:instanceID>
							<stEvt:when>2022-07-04T00:04:09+03:00</stEvt:when>
							<stEvt:softwareAgent>Adobe Illustrator 26.0 (Windows)</stEvt:softwareAgent>
							<stEvt:changed>/</stEvt:changed>
						</rdf:li>
					</rdf:Seq>
				</xmpMM:History>
				<illustrator:StartupProfile>Print</illustrator:StartupProfile>
				<illustrator:CreatorSubTool>Adobe Illustrator</illustrator:CreatorSubTool>
				<xmpTPg:HasVisibleOverprint>False</xmpTPg:HasVisibleOverprint>
				<xmpTPg:HasVisibleTransparency>False</xmpTPg:HasVisibleTransparency>
				<xmpTPg:NPages>1</xmpTPg:NPages>
				<xmpTPg:MaxPageSize  rdf:parseType="Resource">
					<stDim:w>1758.000000</stDim:w>
					<stDim:h>167.000000</stDim:h>
					<stDim:unit>Pixels</stDim:unit>
				</xmpTPg:MaxPageSize>
				<xmpTPg:PlateNames>
					<rdf:Seq>
						<rdf:li>Cyan</rdf:li>
						<rdf:li>Black</rdf:li>
					</rdf:Seq>
				</xmpTPg:PlateNames>
				<xmpTPg:SwatchGroups>
					<rdf:Seq>
						<rdf:li  rdf:parseType="Resource">
							<xmpG:groupName>Default Swatch Group</xmpG:groupName>
							<xmpG:groupType>0</xmpG:groupType>
							<xmpG:Colorants>
								<rdf:Seq>
									<rdf:li  rdf:parseType="Resource">
										<xmpG:swatchName>White</xmpG:swatchName>
										<xmpG:mode>CMYK</xmpG:mode>
										<xmpG:type>PROCESS</xmpG:type>
										<xmpG:cyan>0.000000</xmpG:cyan>
										<xmpG:magenta>0.000000</xmpG:magenta>
										<xmpG:yellow>0.000000</xmpG:yellow>
										<xmpG:black>0.000000</xmpG:black>
									</rdf:li>
									<rdf:li  rdf:parseType="Resource">
										<xmpG:swatchName>Black</xmpG:swatchName>
										<xmpG:mode>CMYK</xmpG:mode>
										<xmpG:type>PROCESS</xmpG:type>
										<xmpG:cyan>0.000000</xmpG:cyan>
										<xmpG:magenta>0.000000</xmpG:magenta>
										<xmpG:yellow>0.000000</xmpG:yellow>
										<xmpG:black>100.000000</xmpG:black>
									</rdf:li>
									<rdf:li  rdf:parseType="Resource">
										<xmpG:swatchName>CMYK Red</xmpG:swatchName>
										<xmpG:mode>CMYK</xmpG:mode>
										<xmpG:type>PROCESS</xmpG:type>
										<xmpG:cyan>0.000000</xmpG:cyan>
										<xmpG:magenta>100.000000</xmpG:magenta>
										<xmpG:yellow>100.000000</xmpG:yellow>
										<xmpG:black>0.000000</xmpG:black>
									</rdf:li>
									<rdf:li  rdf:parseType="Resource">
										<xmpG:swatchName>CMYK Yellow</xmpG:swatchName>
										<xmpG:mode>CMYK</xmpG:mode>
										<xmpG:type>PROCESS</xmpG:type>
										<xmpG:cyan>0.000000</xmpG:cyan>
										<xmpG:magenta>0.000000</xmpG:magenta>
										<xmpG:yellow>100.000000</xmpG:yellow>
										<xmpG:black>0.000000</xmpG:black>
									</rdf:li>
									<rdf:li  rdf:parseType="Resource">
										<xmpG:swatchName>CMYK Green</xmpG:swatchName>
										<xmpG:mode>CMYK</xmpG:mode>
										<xmpG:type>PROCESS</xmpG:type>
										<xmpG:cyan>100.000000</xmpG:cyan>
										<xmpG:magenta>0.000000</xmpG:magenta>
										<xmpG:yellow>100.000000</xmpG:yellow>
										<xmpG:black>0.000000</xmpG:black>
									</rdf:li>
									<rdf:li  rdf:parseType="Resource">
										<xmpG:swatchName>CMYK Cyan</xmpG:swatchName>
										<xmpG:mode>CMYK</xmpG:mode>
										<xmpG:type>PROCESS</xmpG:type>
										<xmpG:cyan>100.000000</xmpG:cyan>
										<xmpG:magenta>0.000000</xmpG:magenta>
										<xmpG:yellow>0.000000</xmpG:yellow>
										<xmpG:black>0.000000</xmpG:black>
									</rdf:li>
									<rdf:li  rdf:parseType="Resource">
										<xmpG:swatchName>CMYK Blue</xmpG:swatchName>
										<xmpG:mode>CMYK</xmpG:mode>
										<xmpG:type>PROCESS</xmpG:type>
										<xmpG:cyan>100.000000</xmpG:cyan>
										<xmpG:magenta>100.000000</xmpG:magenta>
										<xmpG:yellow>0.000000</xmpG:yellow>
										<xmpG:black>0.000000</xmpG:black>
									</rdf:li>
									<rdf:li  rdf:parseType="Resource">
										<xmpG:swatchName>CMYK Magenta</xmpG:swatchName>
										<xmpG:mode>CMYK</xmpG:mode>
										<xmpG:type>PROCESS</xmpG:type>
										<xmpG:cyan>0.000000</xmpG:cyan>
										<xmpG:magenta>100.000000</xmpG:magenta>
										<xmpG:yellow>0.000000</xmpG:yellow>
										<xmpG:black>0.000000</xmpG:black>
									</rdf:li>
									<rdf:li  rdf:parseType="Resource">
										<xmpG:swatchName>C=15 M=100 Y=90 K=10</xmpG:swatchName>
										<xmpG:mode>CMYK</xmpG:mode>
										<xmpG:type>PROCESS</xmpG:type>
										<xmpG:cyan>15.000000</xmpG:cyan>
										<xmpG:magenta>100.000000</xmpG:magenta>
										<xmpG:yellow>90.000000</xmpG:yellow>
										<xmpG:black>10.000000</xmpG:black>
									</rdf:li>
									<rdf:li  rdf:parseType="Resource">
										<xmpG:swatchName>C=0 M=90 Y=85 K=0</xmpG:swatchName>
										<xmpG:mode>CMYK</xmpG:mode>
										<xmpG:type>PROCESS</xmpG:type>
										<xmpG:cyan>0.000000</xmpG:cyan>
										<xmpG:magenta>90.000000</xmpG:magenta>
										<xmpG:yellow>85.000000</xmpG:yellow>
										<xmpG:black>0.000000</xmpG:black>
									</rdf:li>
									<rdf:li  rdf:parseType="Resource">
										<xmpG:swatchName>C=0 M=80 Y=95 K=0</xmpG:swatchName>
										<xmpG:mode>CMYK</xmpG:mode>
										<xmpG:type>PROCESS</xmpG:type>
										<xmpG:cyan>0.000000</xmpG:cyan>
										<xmpG:magenta>80.000000</xmpG:magenta>
										<xmpG:yellow>95.000000</xmpG:yellow>
										<xmpG:black>0.000000</xmpG:black>
									</rdf:li>
									<rdf:li  rdf:parseType="Resource">
										<xmpG:swatchName>C=0 M=50 Y=100 K=0</xmpG:swatchName>
										<xmpG:mode>CMYK</xmpG:mode>
										<xmpG:type>PROCESS</xmpG:type>
										<xmpG:cyan>0.000000</xmpG:cyan>
										<xmpG:magenta>50.000000</xmpG:magenta>
										<xmpG:yellow>100.000000</xmpG:yellow>
										<xmpG:black>0.000000</xmpG:black>
									</rdf:li>
									<rdf:li  rdf:parseType="Resource">
										<xmpG:swatchName>C=0 M=35 Y=85 K=0</xmpG:swatchName>
										<xmpG:mode>CMYK</xmpG:mode>
										<xmpG:type>PROCESS</xmpG:type>
										<xmpG:cyan>0.000000</xmpG:cyan>
										<xmpG:magenta>35.000000</xmpG:magenta>
										<xmpG:yellow>85.000000</xmpG:yellow>
										<xmpG:black>0.000000</xmpG:black>
									</rdf:li>
									<rdf:li  rdf:parseType="Resource">
										<xmpG:swatchName>C=5 M=0 Y=90 K=0</xmpG:swatchName>
										<xmpG:mode>CMYK</xmpG:mode>
										<xmpG:type>PROCESS</xmpG:type>
										<xmpG:cyan>5.000000</xmpG:cyan>
										<xmpG:magenta>0.000000</xmpG:magenta>
										<xmpG:yellow>90.000000</xmpG:yellow>
										<xmpG:black>0.000000</xmpG:black>
									</rdf:li>
									<rdf:li  rdf:parseType="Resource">
										<xmpG:swatchName>C=20 M=0 Y=100 K=0</xmpG:swatchName>
										<xmpG:mode>CMYK</xmpG:mode>
										<xmpG:type>PROCESS</xmpG:type>
										<xmpG:cyan>20.000000</xmpG:cyan>
										<xmpG:magenta>0.000000</xmpG:magenta>
										<xmpG:yellow>100.000000</xmpG:yellow>
										<xmpG:black>0.000000</xmpG:black>
									</rdf:li>
									<rdf:li  rdf:parseType="Resource">
										<xmpG:swatchName>C=50 M=0 Y=100 K=0</xmpG:swatchName>
										<xmpG:mode>CMYK</xmpG:mode>
										<xmpG:type>PROCESS</xmpG:type>
										<xmpG:cyan>50.000000</xmpG:cyan>
										<xmpG:magenta>0.000000</xmpG:magenta>
										<xmpG:yellow>100.000000</xmpG:yellow>
										<xmpG:black>0.000000</xmpG:black>
									</rdf:li>
									<rdf:li  rdf:parseType="Resource">
										<xmpG:swatchName>C=75 M=0 Y=100 K=0</xmpG:swatchName>
										<xmpG:mode>CMYK</xmpG:mode>
										<xmpG:type>PROCESS</xmpG:type>
										<xmpG:cyan>75.000000</xmpG:cyan>
										<xmpG:magenta>0.000000</xmpG:magenta>
										<xmpG:yellow>100.000000</xmpG:yellow>
										<xmpG:black>0.000000</xmpG:black>
									</rdf:li>
									<rdf:li  rdf:parseType="Resource">
										<xmpG:swatchName>C=85 M=10 Y=100 K=10</xmpG:swatchName>
										<xmpG:mode>CMYK</xmpG:mode>
										<xmpG:type>PROCESS</xmpG:type>
										<xmpG:cyan>85.000000</xmpG:cyan>
										<xmpG:magenta>10.000000</xmpG:magenta>
										<xmpG:yellow>100.000000</xmpG:yellow>
										<xmpG:black>10.000000</xmpG:black>
									</rdf:li>
									<rdf:li  rdf:parseType="Resource">
										<xmpG:swatchName>C=90 M=30 Y=95 K=30</xmpG:swatchName>
										<xmpG:mode>CMYK</xmpG:mode>
										<xmpG:type>PROCESS</xmpG:type>
										<xmpG:cyan>90.000000</xmpG:cyan>
										<xmpG:magenta>30.000000</xmpG:magenta>
										<xmpG:yellow>95.000000</xmpG:yellow>
										<xmpG:black>30.000000</xmpG:black>
									</rdf:li>
									<rdf:li  rdf:parseType="Resource">
										<xmpG:swatchName>C=75 M=0 Y=75 K=0</xmpG:swatchName>
										<xmpG:mode>CMYK</xmpG:mode>
										<xmpG:type>PROCESS</xmpG:type>
										<xmpG:cyan>75.000000</xmpG:cyan>
										<xmpG:magenta>0.000000</xmpG:magenta>
										<xmpG:yellow>75.000000</xmpG:yellow>
										<xmpG:black>0.000000</xmpG:black>
									</rdf:li>
									<rdf:li  rdf:parseType="Resource">
										<xmpG:swatchName>C=80 M=10 Y=45 K=0</xmpG:swatchName>
										<xmpG:mode>CMYK</xmpG:mode>
										<xmpG:type>PROCESS</xmpG:type>
										<xmpG:cyan>80.000000</xmpG:cyan>
										<xmpG:magenta>10.000000</xmpG:magenta>
										<xmpG:yellow>45.000000</xmpG:yellow>
										<xmpG:black>0.000000</xmpG:black>
									</rdf:li>
									<rdf:li  rdf:parseType="Resource">
										<xmpG:swatchName>C=70 M=15 Y=0 K=0</xmpG:swatchName>
										<xmpG:mode>CMYK</xmpG:mode>
										<xmpG:type>PROCESS</xmpG:type>
										<xmpG:cyan>70.000000</xmpG:cyan>
										<xmpG:magenta>15.000000</xmpG:magenta>
										<xmpG:yellow>0.000000</xmpG:yellow>
										<xmpG:black>0.000000</xmpG:black>
									</rdf:li>
									<rdf:li  rdf:parseType="Resource">
										<xmpG:swatchName>C=85 M=50 Y=0 K=0</xmpG:swatchName>
										<xmpG:mode>CMYK</xmpG:mode>
										<xmpG:type>PROCESS</xmpG:type>
										<xmpG:cyan>85.000000</xmpG:cyan>
										<xmpG:magenta>50.000000</xmpG:magenta>
										<xmpG:yellow>0.000000</xmpG:yellow>
										<xmpG:black>0.000000</xmpG:black>
									</rdf:li>
									<rdf:li  rdf:parseType="Resource">
										<xmpG:swatchName>C=100 M=95 Y=5 K=0</xmpG:swatchName>
										<xmpG:mode>CMYK</xmpG:mode>
										<xmpG:type>PROCESS</xmpG:type>
										<xmpG:cyan>100.000000</xmpG:cyan>
										<xmpG:magenta>95.000000</xmpG:magenta>
										<xmpG:yellow>5.000000</xmpG:yellow>
										<xmpG:black>0.000000</xmpG:black>
									</rdf:li>
									<rdf:li  rdf:parseType="Resource">
										<xmpG:swatchName>C=100 M=100 Y=25 K=25</xmpG:swatchName>
										<xmpG:mode>CMYK</xmpG:mode>
										<xmpG:type>PROCESS</xmpG:type>
										<xmpG:cyan>100.000000</xmpG:cyan>
										<xmpG:magenta>100.000000</xmpG:magenta>
										<xmpG:yellow>25.000000</xmpG:yellow>
										<xmpG:black>25.000000</xmpG:black>
									</rdf:li>
									<rdf:li  rdf:parseType="Resource">
										<xmpG:swatchName>C=75 M=100 Y=0 K=0</xmpG:swatchName>
										<xmpG:mode>CMYK</xmpG:mode>
										<xmpG:type>PROCESS</xmpG:type>
										<xmpG:cyan>75.000000</xmpG:cyan>
										<xmpG:magenta>100.000000</xmpG:magenta>
										<xmpG:yellow>0.000000</xmpG:yellow>
										<xmpG:black>0.000000</xmpG:black>
									</rdf:li>
									<rdf:li  rdf:parseType="Resource">
										<xmpG:swatchName>C=50 M=100 Y=0 K=0</xmpG:swatchName>
										<xmpG:mode>CMYK</xmpG:mode>
										<xmpG:type>PROCESS</xmpG:type>
										<xmpG:cyan>50.000000</xmpG:cyan>
										<xmpG:magenta>100.000000</xmpG:magenta>
										<xmpG:yellow>0.000000</xmpG:yellow>
										<xmpG:black>0.000000</xmpG:black>
									</rdf:li>
									<rdf:li  rdf:parseType="Resource">
										<xmpG:swatchName>C=35 M=100 Y=35 K=10</xmpG:swatchName>
										<xmpG:mode>CMYK</xmpG:mode>
										<xmpG:type>PROCESS</xmpG:type>
										<xmpG:cyan>35.000000</xmpG:cyan>
										<xmpG:magenta>100.000000</xmpG:magenta>
										<xmpG:yellow>35.000000</xmpG:yellow>
										<xmpG:black>10.000000</xmpG:black>
									</rdf:li>
									<rdf:li  rdf:parseType="Resource">
										<xmpG:swatchName>C=10 M=100 Y=50 K=0</xmpG:swatchName>
										<xmpG:mode>CMYK</xmpG:mode>
										<xmpG:type>PROCESS</xmpG:type>
										<xmpG:cyan>10.000000</xmpG:cyan>
										<xmpG:magenta>100.000000</xmpG:magenta>
										<xmpG:yellow>50.000000</xmpG:yellow>
										<xmpG:black>0.000000</xmpG:black>
									</rdf:li>
									<rdf:li  rdf:parseType="Resource">
										<xmpG:swatchName>C=0 M=95 Y=20 K=0</xmpG:swatchName>
										<xmpG:mode>CMYK</xmpG:mode>
										<xmpG:type>PROCESS</xmpG:type>
										<xmpG:cyan>0.000000</xmpG:cyan>
										<xmpG:magenta>95.000000</xmpG:magenta>
										<xmpG:yellow>20.000000</xmpG:yellow>
										<xmpG:black>0.000000</xmpG:black>
									</rdf:li>
									<rdf:li  rdf:parseType="Resource">
										<xmpG:swatchName>C=25 M=25 Y=40 K=0</xmpG:swatchName>
										<xmpG:mode>CMYK</xmpG:mode>
										<xmpG:type>PROCESS</xmpG:type>
										<xmpG:cyan>25.000000</xmpG:cyan>
										<xmpG:magenta>25.000000</xmpG:magenta>
										<xmpG:yellow>40.000000</xmpG:yellow>
										<xmpG:black>0.000000</xmpG:black>
									</rdf:li>
									<rdf:li  rdf:parseType="Resource">
										<xmpG:swatchName>C=40 M=45 Y=50 K=5</xmpG:swatchName>
										<xmpG:mode>CMYK</xmpG:mode>
										<xmpG:type>PROCESS</xmpG:type>
										<xmpG:cyan>40.000000</xmpG:cyan>
										<xmpG:magenta>45.000000</xmpG:magenta>
										<xmpG:yellow>50.000000</xmpG:yellow>
										<xmpG:black>5.000000</xmpG:black>
									</rdf:li>
									<rdf:li  rdf:parseType="Resource">
										<xmpG:swatchName>C=50 M=50 Y=60 K=25</xmpG:swatchName>
										<xmpG:mode>CMYK</xmpG:mode>
										<xmpG:type>PROCESS</xmpG:type>
										<xmpG:cyan>50.000000</xmpG:cyan>
										<xmpG:magenta>50.000000</xmpG:magenta>
										<xmpG:yellow>60.000000</xmpG:yellow>
										<xmpG:black>25.000000</xmpG:black>
									</rdf:li>
									<rdf:li  rdf:parseType="Resource">
										<xmpG:swatchName>C=55 M=60 Y=65 K=40</xmpG:swatchName>
										<xmpG:mode>CMYK</xmpG:mode>
										<xmpG:type>PROCESS</xmpG:type>
										<xmpG:cyan>55.000000</xmpG:cyan>
										<xmpG:magenta>60.000000</xmpG:magenta>
										<xmpG:yellow>65.000000</xmpG:yellow>
										<xmpG:black>40.000000</xmpG:black>
									</rdf:li>
									<rdf:li  rdf:parseType="Resource">
										<xmpG:swatchName>C=25 M=40 Y=65 K=0</xmpG:swatchName>
										<xmpG:mode>CMYK</xmpG:mode>
										<xmpG:type>PROCESS</xmpG:type>
										<xmpG:cyan>25.000000</xmpG:cyan>
										<xmpG:magenta>40.000000</xmpG:magenta>
										<xmpG:yellow>65.000000</xmpG:yellow>
										<xmpG:black>0.000000</xmpG:black>
									</rdf:li>
									<rdf:li  rdf:parseType="Resource">
										<xmpG:swatchName>C=30 M=50 Y=75 K=10</xmpG:swatchName>
										<xmpG:mode>CMYK</xmpG:mode>
										<xmpG:type>PROCESS</xmpG:type>
										<xmpG:cyan>30.000000</xmpG:cyan>
										<xmpG:magenta>50.000000</xmpG:magenta>
										<xmpG:yellow>75.000000</xmpG:yellow>
										<xmpG:black>10.000000</xmpG:black>
									</rdf:li>
									<rdf:li  rdf:parseType="Resource">
										<xmpG:swatchName>C=35 M=60 Y=80 K=25</xmpG:swatchName>
										<xmpG:mode>CMYK</xmpG:mode>
										<xmpG:type>PROCESS</xmpG:type>
										<xmpG:cyan>35.000000</xmpG:cyan>
										<xmpG:magenta>60.000000</xmpG:magenta>
										<xmpG:yellow>80.000000</xmpG:yellow>
										<xmpG:black>25.000000</xmpG:black>
									</rdf:li>
									<rdf:li  rdf:parseType="Resource">
										<xmpG:swatchName>C=40 M=65 Y=90 K=35</xmpG:swatchName>
										<xmpG:mode>CMYK</xmpG:mode>
										<xmpG:type>PROCESS</xmpG:type>
										<xmpG:cyan>40.000000</xmpG:cyan>
										<xmpG:magenta>65.000000</xmpG:magenta>
										<xmpG:yellow>90.000000</xmpG:yellow>
										<xmpG:black>35.000000</xmpG:black>
									</rdf:li>
									<rdf:li  rdf:parseType="Resource">
										<xmpG:swatchName>C=40 M=70 Y=100 K=50</xmpG:swatchName>
										<xmpG:mode>CMYK</xmpG:mode>
										<xmpG:type>PROCESS</xmpG:type>
										<xmpG:cyan>40.000000</xmpG:cyan>
										<xmpG:magenta>70.000000</xmpG:magenta>
										<xmpG:yellow>100.000000</xmpG:yellow>
										<xmpG:black>50.000000</xmpG:black>
									</rdf:li>
									<rdf:li  rdf:parseType="Resource">
										<xmpG:swatchName>C=50 M=70 Y=80 K=70</xmpG:swatchName>
										<xmpG:mode>CMYK</xmpG:mode>
										<xmpG:type>PROCESS</xmpG:type>
										<xmpG:cyan>50.000000</xmpG:cyan>
										<xmpG:magenta>70.000000</xmpG:magenta>
										<xmpG:yellow>80.000000</xmpG:yellow>
										<xmpG:black>70.000000</xmpG:black>
									</rdf:li>
								</rdf:Seq>
							</xmpG:Colorants>
						</rdf:li>
						<rdf:li  rdf:parseType="Resource">
							<xmpG:groupName>Grays</xmpG:groupName>
							<xmpG:groupType>1</xmpG:groupType>
							<xmpG:Colorants>
								<rdf:Seq>
									<rdf:li  rdf:parseType="Resource">
										<xmpG:swatchName>C=0 M=0 Y=0 K=100</xmpG:swatchName>
										<xmpG:mode>CMYK</xmpG:mode>
										<xmpG:type>PROCESS</xmpG:type>
										<xmpG:cyan>0.000000</xmpG:cyan>
										<xmpG:magenta>0.000000</xmpG:magenta>
										<xmpG:yellow>0.000000</xmpG:yellow>
										<xmpG:black>100.000000</xmpG:black>
									</rdf:li>
									<rdf:li  rdf:parseType="Resource">
										<xmpG:swatchName>C=0 M=0 Y=0 K=90</xmpG:swatchName>
										<xmpG:mode>CMYK</xmpG:mode>
										<xmpG:type>PROCESS</xmpG:type>
										<xmpG:cyan>0.000000</xmpG:cyan>
										<xmpG:magenta>0.000000</xmpG:magenta>
										<xmpG:yellow>0.000000</xmpG:yellow>
										<xmpG:black>89.999400</xmpG:black>
									</rdf:li>
									<rdf:li  rdf:parseType="Resource">
										<xmpG:swatchName>C=0 M=0 Y=0 K=80</xmpG:swatchName>
										<xmpG:mode>CMYK</xmpG:mode>
										<xmpG:type>PROCESS</xmpG:type>
										<xmpG:cyan>0.000000</xmpG:cyan>
										<xmpG:magenta>0.000000</xmpG:magenta>
										<xmpG:yellow>0.000000</xmpG:yellow>
										<xmpG:black>79.998800</xmpG:black>
									</rdf:li>
									<rdf:li  rdf:parseType="Resource">
										<xmpG:swatchName>C=0 M=0 Y=0 K=70</xmpG:swatchName>
										<xmpG:mode>CMYK</xmpG:mode>
										<xmpG:type>PROCESS</xmpG:type>
										<xmpG:cyan>0.000000</xmpG:cyan>
										<xmpG:magenta>0.000000</xmpG:magenta>
										<xmpG:yellow>0.000000</xmpG:yellow>
										<xmpG:black>69.999700</xmpG:black>
									</rdf:li>
									<rdf:li  rdf:parseType="Resource">
										<xmpG:swatchName>C=0 M=0 Y=0 K=60</xmpG:swatchName>
										<xmpG:mode>CMYK</xmpG:mode>
										<xmpG:type>PROCESS</xmpG:type>
										<xmpG:cyan>0.000000</xmpG:cyan>
										<xmpG:magenta>0.000000</xmpG:magenta>
										<xmpG:yellow>0.000000</xmpG:yellow>
										<xmpG:black>59.999100</xmpG:black>
									</rdf:li>
									<rdf:li  rdf:parseType="Resource">
										<xmpG:swatchName>C=0 M=0 Y=0 K=50</xmpG:swatchName>
										<xmpG:mode>CMYK</xmpG:mode>
										<xmpG:type>PROCESS</xmpG:type>
										<xmpG:cyan>0.000000</xmpG:cyan>
										<xmpG:magenta>0.000000</xmpG:magenta>
										<xmpG:yellow>0.000000</xmpG:yellow>
										<xmpG:black>50.000000</xmpG:black>
									</rdf:li>
									<rdf:li  rdf:parseType="Resource">
										<xmpG:swatchName>C=0 M=0 Y=0 K=40</xmpG:swatchName>
										<xmpG:mode>CMYK</xmpG:mode>
										<xmpG:type>PROCESS</xmpG:type>
										<xmpG:cyan>0.000000</xmpG:cyan>
										<xmpG:magenta>0.000000</xmpG:magenta>
										<xmpG:yellow>0.000000</xmpG:yellow>
										<xmpG:black>39.999400</xmpG:black>
									</rdf:li>
									<rdf:li  rdf:parseType="Resource">
										<xmpG:swatchName>C=0 M=0 Y=0 K=30</xmpG:swatchName>
										<xmpG:mode>CMYK</xmpG:mode>
										<xmpG:type>PROCESS</xmpG:type>
										<xmpG:cyan>0.000000</xmpG:cyan>
										<xmpG:magenta>0.000000</xmpG:magenta>
										<xmpG:yellow>0.000000</xmpG:yellow>
										<xmpG:black>29.998800</xmpG:black>
									</rdf:li>
									<rdf:li  rdf:parseType="Resource">
										<xmpG:swatchName>C=0 M=0 Y=0 K=20</xmpG:swatchName>
										<xmpG:mode>CMYK</xmpG:mode>
										<xmpG:type>PROCESS</xmpG:type>
										<xmpG:cyan>0.000000</xmpG:cyan>
										<xmpG:magenta>0.000000</xmpG:magenta>
										<xmpG:yellow>0.000000</xmpG:yellow>
										<xmpG:black>19.999700</xmpG:black>
									</rdf:li>
									<rdf:li  rdf:parseType="Resource">
										<xmpG:swatchName>C=0 M=0 Y=0 K=10</xmpG:swatchName>
										<xmpG:mode>CMYK</xmpG:mode>
										<xmpG:type>PROCESS</xmpG:type>
										<xmpG:cyan>0.000000</xmpG:cyan>
										<xmpG:magenta>0.000000</xmpG:magenta>
										<xmpG:yellow>0.000000</xmpG:yellow>
										<xmpG:black>9.999100</xmpG:black>
									</rdf:li>
									<rdf:li  rdf:parseType="Resource">
										<xmpG:swatchName>C=0 M=0 Y=0 K=5</xmpG:swatchName>
										<xmpG:mode>CMYK</xmpG:mode>
										<xmpG:type>PROCESS</xmpG:type>
										<xmpG:cyan>0.000000</xmpG:cyan>
										<xmpG:magenta>0.000000</xmpG:magenta>
										<xmpG:yellow>0.000000</xmpG:yellow>
										<xmpG:black>4.998800</xmpG:black>
									</rdf:li>
								</rdf:Seq>
							</xmpG:Colorants>
						</rdf:li>
						<rdf:li  rdf:parseType="Resource">
							<xmpG:groupName>Brights</xmpG:groupName>
							<xmpG:groupType>1</xmpG:groupType>
							<xmpG:Colorants>
								<rdf:Seq>
									<rdf:li  rdf:parseType="Resource">
										<xmpG:swatchName>C=0 M=100 Y=100 K=0</xmpG:swatchName>
										<xmpG:mode>CMYK</xmpG:mode>
										<xmpG:type>PROCESS</xmpG:type>
										<xmpG:cyan>0.000000</xmpG:cyan>
										<xmpG:magenta>100.000000</xmpG:magenta>
										<xmpG:yellow>100.000000</xmpG:yellow>
										<xmpG:black>0.000000</xmpG:black>
									</rdf:li>
									<rdf:li  rdf:parseType="Resource">
										<xmpG:swatchName>C=0 M=75 Y=100 K=0</xmpG:swatchName>
										<xmpG:mode>CMYK</xmpG:mode>
										<xmpG:type>PROCESS</xmpG:type>
										<xmpG:cyan>0.000000</xmpG:cyan>
										<xmpG:magenta>75.000000</xmpG:magenta>
										<xmpG:yellow>100.000000</xmpG:yellow>
										<xmpG:black>0.000000</xmpG:black>
									</rdf:li>
									<rdf:li  rdf:parseType="Resource">
										<xmpG:swatchName>C=0 M=10 Y=95 K=0</xmpG:swatchName>
										<xmpG:mode>CMYK</xmpG:mode>
										<xmpG:type>PROCESS</xmpG:type>
										<xmpG:cyan>0.000000</xmpG:cyan>
										<xmpG:magenta>10.000000</xmpG:magenta>
										<xmpG:yellow>95.000000</xmpG:yellow>
										<xmpG:black>0.000000</xmpG:black>
									</rdf:li>
									<rdf:li  rdf:parseType="Resource">
										<xmpG:swatchName>C=85 M=10 Y=100 K=0</xmpG:swatchName>
										<xmpG:mode>CMYK</xmpG:mode>
										<xmpG:type>PROCESS</xmpG:type>
										<xmpG:cyan>85.000000</xmpG:cyan>
										<xmpG:magenta>10.000000</xmpG:magenta>
										<xmpG:yellow>100.000000</xmpG:yellow>
										<xmpG:black>0.000000</xmpG:black>
									</rdf:li>
									<rdf:li  rdf:parseType="Resource">
										<xmpG:swatchName>C=100 M=90 Y=0 K=0</xmpG:swatchName>
										<xmpG:mode>CMYK</xmpG:mode>
										<xmpG:type>PROCESS</xmpG:type>
										<xmpG:cyan>100.000000</xmpG:cyan>
										<xmpG:magenta>90.000000</xmpG:magenta>
										<xmpG:yellow>0.000000</xmpG:yellow>
										<xmpG:black>0.000000</xmpG:black>
									</rdf:li>
									<rdf:li  rdf:parseType="Resource">
										<xmpG:swatchName>C=60 M=90 Y=0 K=0</xmpG:swatchName>
										<xmpG:mode>CMYK</xmpG:mode>
										<xmpG:type>PROCESS</xmpG:type>
										<xmpG:cyan>60.000000</xmpG:cyan>
										<xmpG:magenta>90.000000</xmpG:magenta>
										<xmpG:yellow>0.003100</xmpG:yellow>
										<xmpG:black>0.003100</xmpG:black>
									</rdf:li>
								</rdf:Seq>
							</xmpG:Colorants>
						</rdf:li>
					</rdf:Seq>
				</xmpTPg:SwatchGroups>
				<pdf:Producer>Adobe PDF library 15.00</pdf:Producer>
			</rdf:Description>
		</rdf:RDF>
	</x:xmpmeta>
	<sfw  xmlns="&ns_sfw;">
		<slices></slices>
		<sliceSourceBounds  bottomLeftOrigin="true" height="167.4" width="1046.3" x="18.3" y="-7.7"></sliceSourceBounds>
	</sfw>
</metadata>
<g>
	<path class="st0" d="M89.6,157.8c-0.5,0-0.9,0-1.4,0c-0.7-0.5-1.6,0.1-2.4-0.4c-7.2-0.4-14-2.1-20.5-4.9
		c-24.5-10.5-39.8-28.9-45.5-55c-2.4-10.9-1.8-21.8,0.7-32.6c0.1-0.3,0.2-0.6,0.4-0.9c1.5,0.2,2.1,1.3,2.6,2.5
		c-0.1,2.7-0.8,5.3-1.1,8c-1.3,11.5-0.1,22.7,4,33.4c8.2,21.2,23.2,35.4,44.6,42.9c5.1,1.8,10.4,2.6,15.7,3.4c1,0.4,2,0.2,3,0.3
		c0.3,0,0.6,0.1,0.9,0.3c0.6,0.9,1.6,1.7,0.9,3C90.9,158,90.2,158.1,89.6,157.8z"/>
	<path class="st0" d="M100.7,8.6c7.2,0.3,14,2.2,20.6,4.9c29.1,11.8,47.4,39.6,47,71c-0.1,5.9-0.8,11.8-2.6,17.5
		c-1.3,0.1-1.9-0.9-2.6-1.7c-0.3-0.7-0.1-1.4,0-2.1c1.2-5.4,1.8-10.8,1.7-16.3c-0.3-11.8-3.1-23-8.9-33.3
		c-6.4-11.4-15.1-20.5-26.4-27.1c-8.4-4.9-17.4-8.2-27.1-9.2c-0.8-0.1-1.7-0.3-2.4-0.7c-0.3-0.2-0.5-0.4-0.7-0.7
		c-0.4-0.6-0.8-1.2-0.4-1.9C99.3,8.1,100.1,8.4,100.7,8.6z"/>
	<path class="st0" d="M41.7,28.8c3.5-3.5,7.3-6.5,11.5-8.9c1.6-0.4,1.9,0.6,2.2,1.8c-0.2,0.7-0.8,1-1.3,1.4
		c-3.2,2.4-6.4,4.9-9.5,7.4C44.3,30.8,44,31,43.5,31C42.3,30.7,41.3,30.3,41.7,28.8z"/>
	<path class="st0" d="M140.9,140.7c-3,2.9-6.4,5.2-10.1,7.1c-0.6,0.3-1.3,0.8-1.9,1.1c-1.3-0.2-1.7-1.2-1.8-2.3
		c0.1-0.6,0.5-0.9,1-1.1c3.5-1.9,6.7-4.2,9.9-6.6c0.4-0.4,0.9-0.7,1.5-0.7C140.5,138.7,141.5,139.2,140.9,140.7z"/>
	<path class="st0" d="M91.7,157.7c-0.4-0.9-1-1.7-1.2-2.7c1.9-1.1,3.9-0.4,5.9-0.6c1,0.1,2.1,0,2.8,0.9c0.3,0.3,0.5,0.7,0.5,1.2
		c0.1,1.1-0.9,0.8-1.5,1.2c-0.3,0-0.7,0-1,0C95.4,158,93.5,158.2,91.7,157.7z"/>
	<path class="st0" d="M100.7,8.6c-2.1,0.2-2.1,0.5-0.5,2.7c-1.9,1.3-3.9,0.3-5.8-0.1c-0.8-0.8-1.8-1.7-1.2-2.7
		c0.5-0.8,1.8-0.4,2.8-0.2C97.6,8.1,99.2,8.1,100.7,8.6z"/>
	<path class="st0" d="M116.9,154c-1.6,0.8-3.2,1.3-5,1.5c-1.8,0.2-1.7-1.2-1.8-2.3c1.5-1.6,3.5-1.6,5.5-1.8
		C116.5,152,117.1,152.8,116.9,154z"/>
	<path class="st0" d="M164.6,105.9c-0.2,1.5-0.8,2.9-1.5,4.2c-1.6,0-2.1-1.1-2.4-2.4c0.4-1.7,0.5-3.5,1.9-4.8
		C164.1,103.4,165,104.2,164.6,105.9z"/>
	<path class="st0" d="M99.4,156.6c-0.1-0.3-0.3-0.5-0.4-0.8c-0.4-1.1,0.6-1.1,1.2-1.5c1.2-0.3,2.4-0.8,3.7-0.3
		c1,0.8,1.6,1.9,2.6,2.6c-1.9,0.6-3.8,0.9-5.8,0.8C99.8,157.9,99.7,157.1,99.4,156.6z"/>
	<path class="st0" d="M22.3,59.3c0.3-1.6,0.9-3.1,1.6-4.6c1.3,0.1,1.7,1.3,2.5,2.1c-0.1,1.7-0.5,3.3-1.7,4.6
		C23.2,61.6,22.4,60.8,22.3,59.3z"/>
	<path class="st0" d="M22.3,59.3c0.6,0.8,1.2,1.8,2.3,2c0.3,1.9,0,3.7-1.5,5.1c-0.6-1-1.4-1.7-2.3-2.4
		C21.2,62.4,21.5,60.8,22.3,59.3z"/>
	<path class="st0" d="M80,9.4c1.6-0.7,3.4-0.2,5.1-0.8c0.8,0.8,1.8,1.5,1.2,2.8c-0.3,0.3-0.7,0.3-1.1,0.4c-0.7,0-1.3,0-2,0.3
		c-0.7,0.3-1.4,0.6-2.2,0.2C80.4,11.4,80.3,10.4,80,9.4z"/>
	<path class="st0" d="M125,150.8c-1.4,0.9-3.1,1.4-4.7,2c-0.7-0.9-1.8-1.6-0.9-3c1.2-0.8,2.4-1.6,3.9-1.6
		C124.3,148.9,124.9,149.7,125,150.8z"/>
	<path class="st0" d="M56.4,17.9c1.1-0.9,2.4-1.5,3.7-2C61.7,16,62,17,62,18.2c-1.2,1.2-2.6,2.2-4.4,2.2
		C56.9,19.7,56.2,19,56.4,17.9z"/>
	<path class="st0" d="M32,40c0.7-1.3,1.7-2.5,2.7-3.6c0.8,0.6,1.5,1.3,2.1,2.1c-0.5,1.7-1.5,3-2.9,4C32.5,42.2,31.7,41.5,32,40z"/>
	<path class="st0" d="M61.8,18.2c-0.3-0.9-0.8-1.8-1.7-2.3c1.2-0.9,2.7-1.3,4-1.9c1.5,0.1,1.9,1.1,2,2.4
		C64.9,17.3,63.6,18.5,61.8,18.2z"/>
	<path class="st0" d="M160.7,115.6c-0.7,1.5-1.2,3.1-2.3,4.4c-0.9-0.7-1.5-1.6-2.1-2.5c0.5-1.5,1-3.1,2.4-4
		C159.9,113.6,160.3,114.6,160.7,115.6z"/>
	<path class="st0" d="M140.9,140.7c0.1-1.2-0.7-1.7-1.6-2.3c0.4-1.6,1.8-2.3,3.1-3c1.3,0.2,1.9,0.9,1.9,2.2
		C143.4,138.8,142.3,140,140.9,140.7z"/>
	<path class="st0" d="M36.6,34.2c0.9-1.3,2-2.5,3.2-3.5c1,0.3,1.4,1.3,2.1,2c-0.6,1.7-1.7,2.8-3.2,3.6C37.4,36,37,35.1,36.6,34.2z"
		/>
	<path class="st0" d="M125,150.8c-0.7-0.6-1.1-1.5-1.6-2.3c1-1.3,2.2-2.1,3.8-2.1c0.1,1.1,1,1.6,1.6,2.4
		C127.8,149.8,126.3,150.2,125,150.8z"/>
	<path class="st0" d="M151.7,129.8c-0.8,1.1-1.5,2.3-2.7,3.1c-0.8-0.6-1.6-1.2-1.8-2.3c0.5-1.4,1.3-2.5,2.7-3.2
		C151.2,127.7,152,128.4,151.7,129.8z"/>
	<path class="st0" d="M25,52.4c0.4-1.4,1.1-2.7,1.9-3.9c1.1,0.5,1.6,1.5,2.1,2.4c0,1.3-0.9,2.2-1.6,3.2C25.9,54.5,25.5,54.2,25,52.4
		z"/>
	<path class="st0" d="M156.5,117.5c0.9,0.6,1.6,1.3,1.9,2.5c-0.5,1.2-1.1,2.3-2,3.3c-0.8-0.7-1.7-1.4-2.1-2.5
		C154.8,119.6,155.1,118.2,156.5,117.5z"/>
	<path class="st0" d="M66.1,16.3c-0.7-0.7-0.9-1.8-1.9-2.2c1.3-0.8,2.8-1.2,4.2-1.6c0.8,0.6,1.4,1.4,1.3,2.5
		C68.7,15.9,67.7,16.7,66.1,16.3z"/>
	<path class="st0" d="M28.9,50.8c-0.9-0.6-1.3-1.6-1.9-2.4c0.4-1.3,1.1-2.4,1.9-3.5c1,0.6,1.6,1.5,2.1,2.5
		C30.6,48.8,30,50,28.9,50.8z"/>
	<path class="st0" d="M96.1,8.2c-2.6,0.1-2.6,0.1-1.7,2.7c-1,0.9-2.1,0.6-3.3,0.3c-0.9-0.8-1.8-1.6-1.4-3C91.9,7.9,94,7.8,96.1,8.2z
		"/>
	<path class="st0" d="M69.6,14.8c-0.2-0.9-1.1-1.5-1.2-2.4c1.1-0.6,2.2-1,3.5-1.1c1.5,0.6,1.8,1.6,0.9,2.9
		C71.8,14.8,70.8,15.5,69.6,14.8z"/>
	<path class="st0" d="M147.4,130.6c0.3,0.9,1.5,1.3,1.6,2.3c-0.6,0.9-1.3,1.8-2.2,2.5c-1.4,0.1-1.6-1.1-2.2-1.9
		C145,131.9,145.9,131,147.4,130.6z"/>
	<path class="st0" d="M119.6,150.1c-0.5,1.1,1,1.7,0.8,2.7c-1.1,0.5-2.2,1-3.5,1.1c-0.4-0.8-0.8-1.6-1.2-2.4
		C116.8,150.5,117.9,149.7,119.6,150.1z"/>
	<path class="st0" d="M161,107.8c0.2,1.2,1.1,1.8,2.1,2.4c-0.3,1.2-0.8,2.3-1.4,3.4c-1.3-0.1-1.9-1.1-2.5-2.1
		C159.5,110.1,159.5,108.6,161,107.8z"/>
	<path class="st0" d="M36.6,34.2c1,0.3,1.1,1.5,1.9,2c0,1.3-0.5,2.1-1.8,2.3c-1.1-0.2-1.8-0.9-2-2C35.2,35.6,35.8,34.8,36.6,34.2z"
		/>
	<path class="st0" d="M73.9,10.7c0.8-0.2,1.7-0.6,2.6-0.5c1.8-0.2,2.2,0.9,2.2,2.4c-0.6,0.8-1.5,0.8-2.4,0.9
		C74.7,13.1,73.6,12.5,73.9,10.7z"/>
	<path class="st0" d="M164.6,105.9c0-1.5-1-2.1-2.1-2.8c-0.3-1.1-0.3-2.1,0.8-2.7c1.1,0,1.5,1.2,2.4,1.6
		C165.6,103.4,165.2,104.7,164.6,105.9z"/>
	<path class="st0" d="M154.5,121c0.7,0.7,1.7,1.2,1.9,2.3c-0.4,0.9-0.9,1.7-1.6,2.3c-1.3,0-1.5-1.2-2.1-2
		C152.7,122.4,153.3,121.4,154.5,121z"/>
	<path class="st0" d="M30.7,47.4c-0.9-0.6-1.5-1.4-1.9-2.4c0.3-1,0.9-1.8,1.6-2.6c1,0.6,1.6,1.5,2.1,2.4
		C32.4,45.9,31.8,46.8,30.7,47.4z"/>
	<path class="st0" d="M144.8,133.4c0.9,0.4,1,1.7,2.1,2c-0.7,0.9-1.4,1.8-2.4,2.2c-0.6-0.6-0.7-1.8-1.9-1.9
		C142.6,134.3,143.4,133.5,144.8,133.4z"/>
	<path class="st0" d="M110.3,153.1c0.4,0.9,0.5,2,1.6,2.4c-1.1,0.5-2.3,0.8-3.5,0.8c-0.8-0.8-1.6-1.6-1.6-2.7
		C107.9,152.8,109,152.4,110.3,153.1z"/>
	<path class="st0" d="M89.8,8.2c0.1,1.1,1.2,1.7,1.2,2.8c-0.8,0.9-1.7,0.9-2.8,0.7c-0.9-1-1.2-2.3-2.4-3.1
		C87.1,8.2,88.4,8.2,89.8,8.2z"/>
	<path class="st0" d="M106.7,153.9c1,0.5,1.5,1.4,1.7,2.5c-0.6,0.4-1.2,0.4-1.9,0.3c-1.6,0-1.9-1.2-2.4-2.4
		C104.8,153.4,105.7,153.2,106.7,153.9z"/>
	<path class="st0" d="M78.5,12.5c-0.4-1-0.7-2.1-2.1-2.3c1.1-0.5,2.3-0.7,3.6-0.8c0.7,0.8,1.5,1.5,0.8,2.7
		C80.2,12.9,79.4,13.2,78.5,12.5z"/>
	<path class="st0" d="M56.4,17.9c0.2,0.9,1.1,1.4,1.2,2.4c-0.3,1.2-1,1.8-2.3,1.5c-0.5-0.9-0.8-1.8-2-1.9
		C54.2,19,55.2,18.3,56.4,17.9z"/>
	<path class="st0" d="M151.7,129.8c-0.2-1-0.9-1.7-1.8-2.3c-0.1-1.4,0.7-2.1,1.8-2.6c1,0.4,1.8,1,2,2.2
		C153.2,128.2,152.5,129.1,151.7,129.8z"/>
	<path class="st0" d="M32.3,44.7c-0.9-0.6-1.5-1.4-1.9-2.3c0.4-0.9,0.9-1.6,1.5-2.3c0.3,1,0.9,1.8,1.8,2.3
		C34.1,43.6,33.4,44.2,32.3,44.7z"/>
	<path class="st0" d="M25,52.4c0.6,0.7,0.9,1.9,2.3,1.6c0.5,1.2,0.1,2.2-1.1,2.7c-1.3,0-1.2-1.6-2.3-1.9
		C24.2,53.9,24.5,53.1,25,52.4z"/>
	<path class="st0" d="M41.7,32.6c-1.2-0.1-1.3-1.3-1.9-2c0.5-0.8,1.2-1.4,1.9-1.9c0.2,1.1,0.9,1.8,2,2C43.6,32,42.7,32.4,41.7,32.6z
		"/>
	<path class="st0" d="M159.5,111.7c0.8,0.6,1.5,1.3,2.2,1.9c-0.3,0.7-0.6,1.3-1,2c-1.1-0.3-1.1-1.7-2.2-2
		C158.3,112.7,158.3,111.9,159.5,111.7z"/>
	<path class="st0" d="M73.9,10.7c0.5,1.1,0.9,2.3,2.4,2.3c-1,1.1-2.2,1.6-3.6,1c0.7-1.2-0.4-1.8-0.8-2.7
		C72.5,10.8,73.2,10.9,73.9,10.7z"/>
	<path class="st0" d="M153.7,127.2c-0.7-0.7-1.3-1.3-2-2c-0.1-0.9,0.1-1.4,1.1-1.6c1.1,0.3,1.1,1.6,2,2
		C154.6,126.3,154.2,126.8,153.7,127.2z"/>
	<path class="st0" d="M85.8,8.6c1.6,0.2,2.2,1.1,2.1,2.6c-0.5,0.6-1,0.6-1.6,0.1c0-1.1-1.1-1.7-1.2-2.7C85.3,8.6,85.6,8.6,85.8,8.6z
		"/>
	<path class="st0" d="M91.7,157.7c1.8,0,3.7,0.1,5.6,0.1c-2.5,0.4-5.1,0.4-7.6,0C90.3,157.8,91,157.8,91.7,157.7z"/>
	<path class="st0" d="M99.4,156.6c0.4,0.3,0.6,0.9,1.3,0.8c-0.8,0.4-1.6,0.4-2.4,0.4C98.5,157.3,99.5,157.5,99.4,156.6z"/>
	<path class="st0" d="M85.8,157.4c0.8,0.1,1.7-0.3,2.4,0.4C87.4,157.8,86.6,157.8,85.8,157.4z"/>
	<path class="st0" d="M86.7,154.8c1.1,0,2.2-0.1,3.2,0.3C88.8,155,87.7,155.4,86.7,154.8z"/>
	<path class="st0" d="M96.6,155.1c1.2-0.4,2.4-0.3,3.6-0.3c-0.3,0.5-1.2,0.3-1.2,1.1C98.4,155,97.5,155.1,96.6,155.1z"/>
	<path class="st0" d="M85.2,11.4c-0.6,0.4-1.4,0.3-2.1,0.3C83.8,11.1,84.5,11.4,85.2,11.4z"/>
	<path class="st0" d="M83.9,152.8c-8.8-0.9-17-3.7-24.6-8.1c-19.7-11.3-31.6-28.2-35.5-50.5c-1.8-10.3-1.1-20.5,1.8-30.5
		c0.9,0,1.2,0.6,1.5,1.3c0,2.9-0.9,5.7-1.2,8.6c-2.3,19.7,2.5,37.4,15.2,52.7c9.8,11.8,22.3,19.4,37.3,22.9c2,0.5,4.1,0.6,6.1,1.3
		c0.7,0.3,1.4,0.3,2.1,0.2c0.7,0,1.5,0,2.2,0.3c0.2,0.1,0.3,0.3,0.4,0.5c0.2,0.6,0.5,1.2,0,1.8c-0.4,0.1-0.8,0.1-1.2-0.1
		c-0.5,0-0.9-0.1-1.4-0.1C85.5,152.7,84.6,153.2,83.9,152.8z"/>
	<path class="st0" d="M98.8,12.8c0.5,0,1,0.1,1.4,0.1c0.8,0.4,1.6-0.1,2.4,0.3c7.3,0.7,14.3,2.8,20.8,6.1
		c21.7,10.8,34.8,28.1,39.4,51.8c1.3,6.9,1.4,14,0.4,21c-0.3,2.2-1,4.2-1.5,6.4c-0.8,0.1-1.3-0.3-1.8-0.9c-0.3-0.8,0-1.5,0.1-2.3
		c3.6-21-1.3-39.8-14.8-56.1c-10.9-13.2-25.2-20.9-42.1-23.7c-1.5-0.2-3.1-0.2-4.5-0.9c-0.5-0.5-0.7-1.1-0.5-1.7
		C98.4,12.7,98.6,12.7,98.8,12.8z"/>
	<path class="st0" d="M41.6,35.2c2.8-3.7,6.5-6.3,10.1-9.1c2.7-2.1,5.6-3.8,8.6-5.4c0.4,0.4,0.9,0.7,0.9,1.3c-1,1.5-2.7,2.1-4.1,3.1
		c-4.8,3.1-9.1,6.7-13.3,10.6c-0.3,0.3-0.7,0.6-1.2,0.7C41.9,36.3,41.4,36,41.6,35.2z"/>
	<path class="st0" d="M139.7,136c-4.3,4.1-9.3,7.2-14.6,9.9c-1.1,0.1-1.3-0.6-1.4-1.5c0.5-1,1.5-1.4,2.3-1.9
		c3.9-2.2,7.5-4.6,10.9-7.5c0.6-0.5,1.2-1,2-0.9C139.6,134.5,140.2,135.1,139.7,136z"/>
	<path class="st0" d="M94.8,153.5c-0.4,0-0.8,0-1.2,0c-1-1.7-0.7-2.3,1.2-2.4c0.9-0.1,1.8,0,2.7-0.3c1.8-0.1,3.4-0.8,5.2-0.3
		c0.8,0.5,1.2,1.2,1,2.2c-0.3,0-0.7,0.1-1,0.1c-0.7,0.3-1.4,0-2.1,0.3c-0.5,0-1,0.1-1.5,0.1C97.7,153.6,96.2,153.1,94.8,153.5z"/>
	<path class="st0" d="M160.2,97.7c0.7-0.1,1,0.5,1.5,0.8c0.3,2.7-1.2,4.9-1.9,7.4c-0.9,0.2-1.6-0.1-2.1-0.9
		C158.4,102.5,158.6,99.9,160.2,97.7z"/>
	<path class="st0" d="M26.6,64.9c-0.4-0.4-0.8-0.8-1.1-1.2c0.8-2.7,1.6-5.3,2.8-7.8c0.9-0.4,1.3,0.2,1.7,0.9
		C29.3,59.7,28.5,62.5,26.6,64.9z"/>
	<path class="st0" d="M114.7,150.1c-2.1,1-4.4,1.4-6.7,1.8c-0.6-0.6-0.8-1.2-0.6-2c1.8-1.2,3.7-1.6,5.8-1.7
		C113.9,148.7,114.4,149.3,114.7,150.1z"/>
	<path class="st0" d="M158,105.1c0.6,0.3,1.2,0.5,1.9,0.8c-0.7,2-1.1,4.1-2.3,5.9c-0.9-0.3-1.4-0.9-1.8-1.8
		C156.3,108.2,156.7,106.5,158,105.1z"/>
	<path class="st0" d="M120.9,147.8c-1.6,0.9-3.3,1.5-5,1.9c-1.2,0.3-1.5-0.4-1.5-1.4c1.2-1.6,3-1.8,4.8-2.3
		C120.1,146.2,120.6,146.9,120.9,147.8z"/>
	<path class="st0" d="M63.8,19.1c2.2-1.2,4.5-2.1,6.9-2.8c1.2,0.4,1.2,0.8,0.3,1.9c-1.9,0.9-3.8,2-5.9,2.2
		C64.6,20,64.2,19.6,63.8,19.1z"/>
	<path class="st0" d="M91.7,12.5c0.4,0,0.8,0,1.2,0c0.7,0.4,0.9,1,0.3,1.7c-1.5,0.8-3.1,0-4.6,0.6c-0.9,0.2-1.8,0.2-2.7,0.1
		c-0.6-0.1-1-0.4-1-1.1c0-0.7,0.6-0.7,1-0.9c0.6,0,1.2-0.1,1.8-0.1C89,12.4,90.4,13,91.7,12.5z"/>
	<path class="st0" d="M144.8,131c-1.1,1.2-2,2.7-3.5,3.6c-0.6-0.4-0.9-1-1.3-1.7c0.8-1.7,1.9-3,3.8-3.6
		C144.6,129.5,145.4,129.9,144.8,131z"/>
	<path class="st0" d="M30.1,52c0.6-1.8,1.6-3.4,2.7-5c0.5,0.3,1,0.7,1.3,1.3c-0.5,2-1.3,3.8-3,5.1C30.2,53.3,29.7,53,30.1,52z"/>
	<path class="st0" d="M107.5,149.9c0.1,0.7,0.3,1.3,0.4,2c-1.4,0.4-2.8,0.7-4.3,0.8c-0.3-0.6-0.7-1.2-0.8-1.9
		C104.3,149.5,105.8,149.3,107.5,149.9z"/>
	<path class="st0" d="M85.9,12.9c-0.6,0.6-1.4,1.1,0.1,1.5c-1.7,1.5-3.8,1.1-5.7,1.2c-0.2-0.1-0.4-0.2-0.6-0.3
		c-0.8-1.4,0.4-1.4,1.2-1.6C82.5,13.2,84.2,13,85.9,12.9z"/>
	<path class="st0" d="M41.6,35.2c0.2,0.5,0.5,0.9,1.2,0.9c-0.3,2.1-2,3.2-3.5,4.4c-0.8-0.1-1.3-0.4-1.1-1.3
		C39.2,37.7,40.3,36.4,41.6,35.2z"/>
	<path class="st0" d="M156.1,110.1c0.6,0.5,1.1,0.9,1.5,1.6c-0.5,1.4-1,2.8-1.9,3.9c-0.8-0.3-1.1-1-1.5-1.8
		C154.3,112.4,154.9,111.1,156.1,110.1z"/>
	<path class="st0" d="M152.9,120.5c-0.6,1.2-1.2,2.4-2.2,3.4c-0.7-0.3-1.2-0.7-1.7-1.3c0.3-1.5,1.3-2.6,2.3-3.6
		C152.3,118.9,152.8,119.5,152.9,120.5z"/>
	<path class="st0" d="M123.8,144.3c0.3,0.6,0.5,1.3,1.3,1.6c-0.9,0.9-2.2,0.8-3.2,1.5c-1.2,0.3-1.7-0.3-1.8-1.5
		C121.1,144.6,122.3,144.1,123.8,144.3z"/>
	<path class="st0" d="M149,126.1c-0.5,0.9-1.1,1.7-1.9,2.3c-1,0.2-1.4-0.5-1.8-1.2c0.4-1.3,1-2.6,2.6-2.9
		C148.8,124.6,149.5,125,149,126.1z"/>
	<path class="st0" d="M154.4,114c0.8,0.3,0.9,1.1,1.3,1.7c-0.2,1-0.8,1.8-1.4,2.6c-0.9,0.5-1.4-0.2-2-0.8
		C152.4,116,153,114.7,154.4,114z"/>
	<path class="st0" d="M79.7,15.2c0.2,0,0.4,0.1,0.6,0.1c-1.4,1.5-3.4,1.4-5.2,1.7c-0.8-0.3-0.5-1.2-0.8-1.8c1.1-0.5,2.2-0.8,3.3-0.8
		C78.5,14.1,79.2,14.3,79.7,15.2z"/>
	<path class="st0" d="M93.2,14c0.1-0.5-0.1-1-0.4-1.4c0.8,0,1.6,0,2.3,0c1,0.4,2.1-0.2,3.1,0.4c0.3,0.4,0.4,0.9,0.4,1.5
		c-0.2,0.3-0.6,0.3-0.9,0.3C96.3,14.2,94.6,15.1,93.2,14z"/>
	<path class="st0" d="M74.2,15.2c1.2,0.2,0.7,0.9,0.4,1.5c-1.1,1.1-2.3,1.8-3.9,1.1c0.7-0.6,0.7-1.1-0.1-1.5
		C71.8,15.7,73,15.5,74.2,15.2z"/>
	<path class="st0" d="M38.2,39.2c0.2,0.5,0.6,0.9,1.1,1.2c0,1.6-1.2,2.3-2.3,3.2c-0.8-0.1-1.3-0.4-1.1-1.3
		C36.4,41.1,37.3,40.1,38.2,39.2z"/>
	<path class="st0" d="M30.1,52c0,0.7,0.4,1.1,1.1,1.2c0.4,1.5-0.2,2.7-1.5,3.5c-0.5-0.2-0.8-0.8-1.5-0.8
		C28.8,54.6,29.2,53.2,30.1,52z"/>
	<path class="st0" d="M145.5,127.2c0.6,0.4,1.1,0.8,1.7,1.2c-0.7,1-1.3,2-2.4,2.6c0.1-0.9-0.6-1.2-1.2-1.5
		C143.8,128.4,144.2,127.4,145.5,127.2z"/>
	<path class="st0" d="M89,153.1c-0.3-0.5-0.4-1-0.4-1.5c1-0.8,2.2-0.7,3.3-0.4c1.1,0.3,1.4,1.2,0.9,2.3c-0.4,0-0.8,0-1.2,0
		C90.8,153.1,89.8,153.7,89,153.1z"/>
	<path class="st0" d="M63.8,19.1c0.8-0.1,1.3,0.3,1.2,1.1c-0.8,1-1.8,1.6-3,1.7c-0.5-0.4-1-0.8-1.3-1.3
		C61.6,19.9,62.7,19.4,63.8,19.1z"/>
	<path class="st0" d="M35.9,42.3c0.2,0.5,0.6,0.9,1.1,1.2c0.1,1.5-1,2.2-2,2.9c-0.9-0.1-1.4-0.4-1-1.4C34.4,44,35.1,43.1,35.9,42.3z
		"/>
	<path class="st0" d="M149,126.1c-0.1-0.8-0.6-1.3-1.3-1.6c-0.1-1,0.3-1.7,1.4-1.9c0.8,0.1,1.2,0.7,1.5,1.3
		C150,124.6,149.9,125.6,149,126.1z"/>
	<path class="st0" d="M152.5,117.5c0.8-0.1,1.1,0.8,1.9,0.8c-0.4,0.8-0.7,1.7-1.5,2.2c-0.5-0.5-0.9-0.9-1.4-1.4
		C151.1,118.1,151.6,117.7,152.5,117.5z"/>
	<path class="st0" d="M92.8,153.5c0-1.5-0.7-2.1-2.2-1.9c-0.7,0.1-1.4,0-2.1,0c0-0.1,0-0.2,0-0.3c1.8-1.2,3.7-0.5,5.6-0.6
		c1.1-0.1,2.3-0.3,3.3,0.7c-0.7,0.6-1.5,0.4-2.2,0.3c-1.6-0.2-2.2,0.4-1.7,1.9C93.4,153.5,93.1,153.5,92.8,153.5z"/>
	<path class="st0" d="M140,133c0.9,0.1,1.1,0.8,1.2,1.6c-0.4,0.6-0.9,1.1-1.6,1.4c-0.3-0.6-0.5-1.3-0.8-2
		C139,133.3,139.3,132.9,140,133z"/>
	<path class="st0" d="M34,45.1c0,0.7,0.4,1.1,1.1,1.1c0.2,1,0,1.7-1.1,1.9c-0.7,0-1.1-0.4-1.2-1.2C33.2,46.3,33.6,45.7,34,45.1z"/>
	<path class="st0" d="M114.6,148.1c0.1,0.8,0.3,1.5,1.3,1.6c-0.3,0.4-0.8,0.4-1.2,0.4c-0.7-0.3-1.2-0.8-1.3-1.6
		C113.6,148,114,147.7,114.6,148.1z"/>
	<path class="st0" d="M120.4,145.8c0.1,0.9,0.7,1.4,1.6,1.5c-0.3,0.4-0.7,0.4-1.1,0.4c-0.6-0.5-1.1-1-1.7-1.5
		C119.4,145.8,119.8,145.6,120.4,145.8z"/>
	<path class="st0" d="M79.7,15.2c-0.6-0.4-1.3-0.9-2.1-0.8c1.1-0.4,2.1-0.7,3.3-0.7C80.3,14.1,79.4,14.2,79.7,15.2z"/>
	<path class="st0" d="M94.8,153.5c1.4-0.7,2.9-0.2,4.3-0.3C97.7,153.6,96.2,153.5,94.8,153.5z"/>
	<path class="st0" d="M91.7,12.5c-1.3,0.7-2.7,0.2-4,0.3C89,12.4,90.3,12.5,91.7,12.5z"/>
	<path class="st0" d="M89,153.1c0.9,0.2,1.9-0.3,2.7,0.4c-1.3,0-2.7,0.2-4-0.3C88.1,153.2,88.5,153.1,89,153.1z"/>
	<path class="st0" d="M60.7,20.6c0.7,0,1.2,0.4,1.2,1.1c-0.2,0.2-0.5,0.3-0.7,0.1c-0.5-0.2-0.8-0.6-0.8-1.1
		C60.4,20.6,60.5,20.6,60.7,20.6z"/>
	<path class="st0" d="M98.3,12.9c-1-0.2-2.1,0.3-3.1-0.4c1.2,0,2.4-0.2,3.6,0.3C98.6,12.9,98.4,12.9,98.3,12.9z"/>
	<path class="st0" d="M102.6,13.2c-0.8-0.1-1.7,0.3-2.4-0.3C101,12.9,101.9,12.8,102.6,13.2z"/>
	<path class="st0" d="M83.9,152.8c0.8,0.1,1.7-0.3,2.4,0.3C85.4,153.1,84.6,153.2,83.9,152.8z"/>
	<path class="st0" d="M100.6,153.1c0.6-0.6,1.4-0.3,2.1-0.3C102,153.2,101.3,153.1,100.6,153.1z"/>
	<path class="st0" d="M84.3,150.9c0.7,0,1.4,0,2.1,0.3C85.7,151.1,84.9,151.5,84.3,150.9z"/>
	<path class="st0" d="M97.9,14.4c-3.1,0-6.2,0-9.3,0c1.5-0.7,3.1-0.1,4.6-0.4C94.8,14.3,96.4,13.6,97.9,14.4z"/>
	<path class="st0" d="M138.9,63.6c2.1-4.8,1-8.8-2.8-12.3c-4-3.7-7.8-7.7-11.6-11.6c-1.6-1.6-3.2-2.9-5.3-3.7
		c-1.1-0.6-1.4-1.9-2.2-2.9c-1.8-2.3-3.4-4.6-5.1-7c-0.5-0.7-1.4-1.6-0.1-2.4c7.4-1.7,14.2,0,19.7,5.1c5.3,5,10.5,10.1,15.4,15.4
		c7.7,8.1,7.6,21.6,0.1,29.3c-0.8,0.2-1.1-0.6-1.4-1C143.4,69.7,141.2,66.6,138.9,63.6z"/>
	<path class="st0" d="M47.5,102c-1.5,4.6-0.3,8.2,3.2,11.5c3.8,3.6,7.5,7.4,11.2,11.2c1.9,2,4,3.6,6.7,4.3c-0.2,0.9,0.2,1.5,0.7,2.1
		c1.8,2.6,3.8,5.2,5.6,7.8c0.4,0.6,0.9,1.1,1,1.8c-7.9,2.2-15,0.4-20.9-5.1c-5-4.7-9.9-9.7-14.7-14.6c-7.9-8.2-8.2-21.6-0.8-29.5
		c0.6-0.4,1,0,1.3,0.4c2.3,3,4.5,6,6.6,9.2C47.6,101.3,47.7,101.7,47.5,102z"/>
	<path class="st0" d="M83.9,64.7c-2.5,2.7-5.1,5.3-7.9,7.8c-0.6,0.4-1-0.1-1.2-0.5c-2.1-2.8-4.2-5.6-6.2-8.5
		c-0.2-0.3-0.4-0.7-0.2-1.1c2.5-2.7,5.1-5.3,7.8-7.8c0.6-0.4,1-0.1,1.3,0.3c2.1,3,4.4,5.8,6.3,9C84,64.2,84,64.5,83.9,64.7z"/>
	<path class="st0" d="M99.1,104c2.4-2.5,4.9-5,7.3-7.4c0.9-0.6,1.3,0.2,1.7,0.7c1.9,2.7,3.8,5.3,5.8,8c0.3,0.4,0.6,0.9,0.2,1.4
		c-2.4,2.6-4.8,5.1-7.4,7.4c-0.7,0.5-1.1-0.1-1.4-0.5c-2-2.7-4-5.4-6-8.2C99.1,104.9,98.9,104.5,99.1,104z"/>
	<path class="st0" d="M117.7,129.1c3.7-0.4,6-3.1,8.5-5.4c0.7-0.2,1.1,0.2,1.5,0.7c2.1,3,4.6,5.9,6.4,9.1c-2.5,2.9-5.3,5.3-9,6.6
		c-0.8,0.2-1-0.5-1.3-0.9c-2-2.6-3.9-5.2-5.7-7.9C117.6,130.6,117,129.9,117.7,129.1z"/>
	<path class="st0" d="M49,35.2c2.4-2.5,4.7-5.1,7.5-7.2c0.8-0.5,1.2,0,1.6,0.5c2.1,2.7,4.1,5.5,6.1,8.4c0.2,0.3,0.3,0.6,0.1,0.9
		c-2.5,2.4-4.9,4.8-7.4,7.3c-0.5,0.4-1,0.1-1.3-0.3c-2.3-2.9-4.5-5.9-6.5-9C48.9,35.7,48.9,35.4,49,35.2z"/>
	<path class="st0" d="M94,109c0.6-1,1.6-1.5,2.3-2.3c2.5,2.9,4.6,6.1,6.9,9.2c0.3,0.4,0.4,0.8,0.4,1.2c-1.2,1.1-0.9,1.9,0.3,2.9
		c2.8,2.6,5.5,5.3,8.2,7.9c0.8,1.9,2.2,3.4,3.4,5.1c1.4,2,2.9,4.1,4.4,6.1c0.5,0.6,0.9,1.2,0.9,2.1c-1.3,0.6-2.6,0.5-4,0.4
		c-3.8-4.9-7.4-10-11.1-15.1c-3.7-5-7.4-10.1-11-15.1C94.3,110.7,93.4,110.1,94,109z"/>
	<path class="st0" d="M56,74.9c0.8-1.2,1.5-1.5,2.6-0.2c1.3,1.6,2.9,3,4.3,4.5c0.9,2,2.4,3.5,3.6,5.2c5.3,7.4,10.7,14.7,16,22.1
		c0.6,0.8,2,1.7,0.8,3.1c-0.9,0-1.8,0-2.6,0c-2.2-2-3.6-4.7-5.3-7C69.1,94,62.9,85.3,56.6,76.7C56.2,76.2,55.5,75.7,56,74.9z"/>
	<path class="st0" d="M94,109c1.6,3.3,4.1,6,6.2,9c5.2,7.4,10.7,14.6,16,22c0.3,0.5,0.6,1,0.6,1.6c-1.1,0.2-2.1,0.1-3.1-0.1
		c-0.8-0.1-1.2-0.7-1.6-1.3c-6.4-9-12.9-17.8-19.3-26.7c-0.5-0.7-1.5-1.4-0.8-2.5c0.2-0.3,0.5-0.6,0.7-0.9c0.2-0.2,0.1-0.6,0.4-0.7
		C93.6,109.5,93.8,109.1,94,109z"/>
	<path class="st0" d="M92.1,110.9c0.3,2.1,2,3.4,3.1,5c5.9,8.4,12.2,16.5,18,25c0.1,0.2,0.4,0.3,0.6,0.5c-1.9-0.2-3.7-0.6-5.4-1.5
		c-5.5-7.9-11.2-15.6-16.8-23.4c-0.7-1-1.8-1.9-1.7-3.3C90.3,112.3,91.3,111.8,92.1,110.9z"/>
	<path class="st0" d="M83.6,109.4c-1-2.9-3.1-5-4.8-7.3c-5-7-10.1-14-15.2-21c-0.4-0.5-1.1-1-0.6-1.8c1.1,1.1,2.1,2.5,3.6,3.1
		c1.7,2.5,4.2,4.3,6.2,6.5c0.8,0.9,1.7,1.9,2.6,2.8c0.9,2.1,2.5,3.7,3.8,5.5c2.4,3.4,4.8,6.7,7.2,10c0.5,0.7,1.8,1.4,0.3,2.5
		C85.6,109.5,84.6,109.7,83.6,109.4z"/>
	<path class="st0" d="M56,74.9c1.7,3,3.9,5.5,5.8,8.3c5.9,8.3,12,16.4,18,24.7c0.3,0.5,0.6,1,0.6,1.6c-0.8,0.3-1.6,0.1-2.4,0.2
		c-0.5-0.1-0.8-0.4-1-0.8c-7.2-10.2-14.7-20.3-22-30.4c-0.4-0.5-1.1-1-0.5-1.8C55,75.9,55.5,75.4,56,74.9z"/>
	<path class="st0" d="M89.8,113.3c5.9,8.2,11.9,16.4,17.8,24.6c0.5,0.6,0.8,1.3,0.8,2.1c-2.2-0.8-4.1-1.9-5.8-3.6
		c-4.3-6.5-9-12.7-13.7-19c-0.5-0.7-1.2-1.2-1-2.2C88.5,114.6,89.1,113.9,89.8,113.3z"/>
	<path class="st0" d="M54.5,76.5c1.9,3.4,4.4,6.4,6.7,9.6c5.1,7.1,10.3,14.2,15.5,21.4c0.4,0.6,1.1,1.2,1.1,2
		c-0.7,0.3-1.5,0.1-2.3,0.1c-0.5-0.6-1.1-1.2-1.6-1.7c-4.3-6.4-9-12.6-13.5-18.9c-2.2-3.1-4.5-6.2-6.7-9.2c-0.4-0.5-0.9-0.9-0.7-1.7
		C53.3,77.3,53.9,76.9,54.5,76.5z"/>
	<path class="st0" d="M52.9,78c6.6,9,13.2,18,19.7,27.1c0.6,0.8,1.3,1.6,1.2,2.8c-3.3-3.1-6.6-6.3-9.7-9.7c-3.9-5.6-8-11.1-12-16.7
		c-0.4-0.6-1-1-0.8-1.9C51.9,79,52.4,78.5,52.9,78z"/>
	<path class="st0" d="M121,83c-1.8-1.8-3.6-3.6-5.3-5.4c-2.5-4.2-5.7-7.9-8.4-11.9c-1.9-2.7-3.9-5.2-5.7-8c-0.4-0.7-1.3-1.4-0.4-2.4
		c0.7-0.1,1.3,0,2,0c1.2,0.8,1.6,2.1,2.4,3.2c6.2,8.4,12.3,16.8,18.4,25.3c0.4,0.6,1.7,1.3,0.3,2.2C123,85.3,122.1,84.1,121,83z"/>
	<path class="st0" d="M109.5,55.5c2.5-0.4,3.3,1.8,4.7,3.1c4.6,6.2,9.2,12.5,13.7,18.7c1.9,2.7,3.9,5.3,5.7,8
		c0.3,0.5,0.8,0.9,0.3,1.5c-0.3,0.5-0.6,0.9-1.2,1.2c-2.5-2.2-4.1-5.1-6.1-7.7c-5.1-6.9-10.2-13.9-15.2-20.9
		C110.7,58.2,109.3,57.2,109.5,55.5z"/>
	<path class="st0" d="M124.3,86.1c0.7-0.7-0.1-1.2-0.4-1.7c-6.4-8.8-12.8-17.6-19.2-26.4c-0.6-0.8-1.2-1.5-1.3-2.5
		c0.4-0.4,0.8-0.3,1.3-0.1c0.2,0,0.4,0,0.6,0c8.1,11.1,16.2,22.1,24.1,33.3c0.4,0.6,1.2,1.1,0.6,2c-0.7,1-1.1,0.1-1.5-0.3
		C127.1,89,125.7,87.6,124.3,86.1z"/>
	<path class="st0" d="M109.5,55.5c2.8,4.8,6.3,9,9.5,13.5c3.9,5.6,8.1,11.1,12.1,16.7c0.6,0.8,1.6,1.2,1.6,2.3
		c-0.2,0.5-0.6,0.8-1.1,0.8c-1.1,0.2-1.4-0.8-1.9-1.4c-6.1-8.4-12.3-16.8-18.3-25.2c-1.2-1.6-2.5-3.2-3.5-4.9
		c-0.3-0.6-1-1.1-0.4-1.9C108.2,55.5,108.9,55.5,109.5,55.5z"/>
	<path class="st0" d="M94.8,53.9c-0.2,0.4-0.5,0.8-1,0.9c-0.9,0.2-1.1-0.5-1.4-1c-6.9-9.4-13.7-18.9-20.6-28.3
		c-0.5-0.6-1.2-1.3-0.6-2.2c0.5,0,1,0.1,1.6,0.1c0.8,0.2,1.3,0.6,1.8,1.3c6.3,8.8,12.7,17.6,19.1,26.4
		C94.2,51.8,95.3,52.5,94.8,53.9z"/>
	<path class="st0" d="M139.6,102.8c-1.4-3.4-4.4-5.6-6.9-8.1c-1.4-1.4-1.7-2.3,0-3.4c0.3-0.2,0.5-0.4,0.7-0.6
		c0.8,0.2,1.3,0.8,1.7,1.4c5.1,7.1,10.2,14.1,15.4,21.2c0.1,0.2,0.2,0.5,0.3,0.7c-0.2,0.9-0.5,1.7-1.1,2.4c-2.8-3.1-5-6.8-7.5-10.1
		C141.4,105.1,140.5,104,139.6,102.8z"/>
	<path class="st0" d="M120.8,141.2c-2.8-3.8-5.6-7.7-8.4-11.5c-0.3-0.5-1-0.9-0.4-1.7c1.8,0.7,3.6,1.1,5.5,1.1
		c-0.2,1.1,0.7,1.6,1.2,2.3c2,2.9,4.1,5.7,6.2,8.5C123.7,140.7,122.3,141.2,120.8,141.2z"/>
	<path class="st0" d="M152.1,101.2c0.5,1.7,0.6,3.3,0.4,5.1c-1.1,0.2-1.6-0.7-2.1-1.3c-4.3-6.1-8.8-12-13.1-18.1
		c0.5-0.8,1.2-1.4,1.9-1.9c1.1-0.2,1.4,0.7,1.9,1.3C144.8,91.2,148.4,96.3,152.1,101.2z"/>
	<path class="st0" d="M133.9,86.8c-1.6-3.2-4.1-5.9-6.1-8.8c-2.9-4.2-6-8.3-9-12.5c-1.2-1.7-2.5-3.4-3.8-5.1
		c-0.4-0.6-0.8-1.2-0.8-1.9c3,2.3,5.5,5.1,8.1,7.8c3.6,5.5,7.7,10.8,11.5,16.1c0.7,0.9,1.8,1.7,1.2,3.2
		C134.8,86.2,134.4,86.6,133.9,86.8z"/>
	<path class="st0" d="M80.1,25.7c2,0.7,3.6,1.9,5,3.5c4.1,6.2,8.7,12,13,18.1c0.5,0.7,1.4,1.2,1,2.3c-0.3,0.3-0.7,0.7-1,1
		c-1,0.2-1.4-0.5-1.9-1.1C90.9,42.3,85.7,35,80.4,27.8C80,27.2,79.4,26.5,80.1,25.7z"/>
	<path class="st0" d="M34.7,55c0-1.1,0.2-2.1,0.8-3.1c2.5,2.5,4.3,5.6,6.4,8.5c3.6,4.8,7,9.8,10.7,14.5c-0.4,0.6-0.9,1.2-1.5,1.6
		c-1,0.5-1.4-0.3-1.8-0.9C45,69.8,40.8,64,36.6,58.2C35.9,57.2,34.6,56.5,34.7,55z"/>
	<path class="st0" d="M87.8,115.3c4.6,6.3,9.2,12.6,13.8,18.9c0.5,0.7,1,1.4,0.9,2.2c-3.9-3.5-7.6-7.3-11.2-11.1
		c-1.3-2.3-3-4.3-4.4-6.4c-0.4-0.6-1.2-1.1-0.6-2C86.7,116.2,87.2,115.7,87.8,115.3z"/>
	<path class="st0" d="M137.4,86.9c2,1.1,2.9,3.2,4.2,4.9c3.2,4.2,6.1,8.6,9.2,12.8c0.5,0.7,1.1,1.3,1.8,1.7c0.1,1.2,0.1,2.4-0.4,3.6
		c-1.2-0.4-1.8-1.4-2.5-2.3c-4.6-6.4-9.2-12.8-13.9-19.1C136.3,87.9,136.8,87.4,137.4,86.9z"/>
	<path class="st0" d="M49.4,78c-0.2,0.9-1,1-1.5,1.6c-1.3,0.5-1.7-0.6-2.2-1.3c-2.6-3.5-5.2-7.1-7.7-10.6c-1-1.5-2.2-2.8-3.2-4.4
		c-0.6-1.5-0.5-3.1-0.4-4.7c0.9-0.3,1.3,0.4,1.7,0.9C40.5,65.7,45,71.8,49.4,78z"/>
	<path class="st0" d="M52.6,74.9c-2-0.5-2.5-2.5-3.5-3.8c-4.4-5.7-8.6-11.7-12.8-17.5c-0.3-0.5-0.8-0.9-0.8-1.5
		c-0.1-0.6,0.2-1,0.5-1.5c1.4-0.3,1.7,0.9,2.3,1.6c2.7,3.5,5.3,7.2,7.9,10.7c2.2,3,4.4,6,6.6,9.1c0.4,0.6,1.2,1.3,0.7,2.2
		C53.1,74.4,52.8,74.7,52.6,74.9z"/>
	<path class="st0" d="M49.4,78c-1.9-1.3-3-3.4-4.3-5.3c-3.1-4.2-6-8.4-9.1-12.6c-0.4-0.6-1.1-1-1.7-1.5c-0.1-1.2-0.2-2.4,0.4-3.6
		c5.2,6.6,10,13.6,15,20.4c0.4,0.5,0.7,0.9,1.3,1C50.7,77.2,49.9,77.5,49.4,78z"/>
	<path class="st0" d="M53.3,74.2c-1.4-3.2-3.8-5.7-5.8-8.5c-3.5-4.9-7-9.9-10.8-14.7c-0.2-0.3-0.4-0.5-0.8-0.5c0.2-0.7,0.5-1.5,1-2
		c2.6,2.4,4.3,5.6,6.5,8.3c1.3,1.6,2.3,3.3,3.6,4.9c1.3,3.6,4.4,5.8,7,8.4c1.4,1.4,1.7,2.3,0,3.4C53.8,73.7,53.6,73.9,53.3,74.2z"/>
	<path class="st0" d="M94.8,53.9c-1.6-3.3-4.1-6-6.2-9c-4.7-6.6-9.5-13.1-14.2-19.6c-0.5-0.7-0.9-1.4-1.7-1.8c1-0.1,1.9,0.1,2.7,0.8
		c0.9,0.5,1.4,1.3,2,2.1c6.1,8.3,12,16.7,18.2,25c0.3,0.4,0.7,0.8,0.4,1.4C95.7,53.1,95.3,53.5,94.8,53.9z"/>
	<path class="st0" d="M135.8,88.4c0.7,0,1,0.5,1.3,1c4.3,6,8.7,12,13,17.9c0.6,0.9,1.4,1.7,2.1,2.6c0,1.1-0.3,2.1-0.8,3.1
		c-5.5-7.5-10.9-15-16.4-22.5c-0.2-0.3-0.4-0.5-0.4-0.9C135,89.2,135.4,88.8,135.8,88.4z"/>
	<path class="st0" d="M103.6,117.1c-2.1-2.9-4.2-5.7-6.4-8.6c-0.4-0.6-0.8-1.1-0.9-1.9c0.9-0.9,1.8-1.8,2.7-2.7
		c2.3,3.2,4.6,6.5,6.9,9.7c0.1,0.2,0.5,0.2,0.7,0.3C106,115.4,104.6,116,103.6,117.1z"/>
	<path class="st0" d="M80.1,25.7c0,1.7,1.3,2.6,2.2,3.7c4.6,6.5,9.4,12.9,14.1,19.4c0.5,0.7,1,1.3,1.8,1.7c-0.4,0.4-0.8,0.8-1.2,1.2
		c-0.9,0.2-1.3-0.4-1.7-1c-5.8-8-11.7-16-17.5-24.1c-0.4-0.6-1-1.2-0.4-2.1C78.4,24.6,79.1,25.4,80.1,25.7z"/>
	<path class="st0" d="M134.6,89.6c1.8,1.5,2.9,3.6,4.2,5.4c4,5.4,7.9,10.8,11.8,16.2c0.4,0.6,0.7,1.1,0.7,1.7c0,0.4-0.1,0.8-0.4,1.1
		c-2.4-2-3.8-4.8-5.7-7.2c-4-5.3-7.9-10.7-11.8-16.1C133.8,90.2,134.1,89.8,134.6,89.6z"/>
	<path class="st0" d="M134,133.4c-2.4-2.1-3.8-4.9-5.7-7.4c-0.7-0.8-1.1-1.9-2.2-2.4c0.8-1,1.7-1.9,2.7-2.7c0.7-0.3,1.1,0.2,1.5,0.6
		c2.2,3,4.6,5.8,6.4,9.1C135.9,131.7,135.1,132.6,134,133.4z"/>
	<path class="st0" d="M49,35.2c2.2,3,4.4,5.9,6.5,8.9c0.4,0.5,0.7,0.9,1.3,0.9c-0.8,1-1.7,1.9-2.7,2.7c-0.7,0.4-1.3,0-1.7-0.5
		c-2.1-2.8-4.1-5.6-6.1-8.4c-0.2-0.3-0.3-0.6-0.1-0.9C47.1,37,48,36,49,35.2z"/>
	<path class="st0" d="M83.9,64.7c-2.1-3-4.3-6-6.4-9c-0.3-0.5-0.6-1-1.3-1c0.8-1,1.7-2,2.7-2.7c0.6-0.5,1,0,1.3,0.4
		c2.2,2.9,4.4,5.8,6.3,8.8c0.1,0.2,0.2,0.5,0.1,0.8C85.8,63,85,64,83.9,64.7z"/>
	<path class="st0" d="M68.4,62.5c2.3,3.2,4.6,6.3,6.9,9.5c0.2,0.3,0.4,0.5,0.7,0.6c-0.7,1.1-1.7,1.9-2.7,2.7c-0.8,0.1-1.3-0.5-1.7-1
		c-1.7-2.4-3.6-4.7-5.2-7.1C66,65.1,66.7,63.6,68.4,62.5z"/>
	<path class="st0" d="M99,49.6c-2.6-3.7-5.3-7.4-7.9-11.1c-1.7-2.4-3.5-4.8-5.2-7.2c-0.5-0.6-0.8-1.3-0.8-2.1
		c3.4,3.1,6.6,6.3,9.7,9.7c1.7,2.5,3.5,4.9,5.2,7.3c0.4,0.5,1.1,1,0.6,1.8C100.1,48.5,99.6,49,99,49.6z"/>
	<path class="st0" d="M114.2,106.6c-2-3.4-4.6-6.4-6.8-9.7c-0.2-0.2-0.6-0.2-0.9-0.3c0.9-0.9,1.8-1.8,2.7-2.7c0.6-0.5,1,0,1.3,0.4
		c2.2,2.8,4.2,5.7,6.3,8.6c0.2,0.3,0.3,0.7,0.1,1.1C116.1,104.9,115.2,105.8,114.2,106.6z"/>
	<path class="st0" d="M75.9,140.8c-2.3-2.4-3.9-5.3-5.9-7.9c-0.6-0.8-1.2-1.5-1.7-2.3c-0.4-0.6-0.9-1.3,0.4-1.5
		c1.2-0.1,2.5-0.1,3.7-0.2c1.4,3.3,4,5.8,5.9,8.8c0.4,0.6,1,1.2,1.1,2C78.2,140.3,77.1,140.7,75.9,140.8z"/>
	<path class="st0" d="M64.2,37.8C62.1,34.9,60,32,58,29.1c-0.4-0.5-0.7-1.1-1.5-1.1c1.1-1.1,2.3-1.9,3.8-2.4c1.5,1,2.2,2.6,3.2,4
		c1.1,1.5,2.4,3,3.4,4.6c0.3,0.6,1,1.1,0.5,1.9C66.3,36.7,65.2,37.2,64.2,37.8z"/>
	<path class="st0" d="M83.1,44.8c-3-2.5-5.3-5.6-8.5-7.9c-1.5-3-3.8-5.5-5.6-8.2c-1.1-1.6-2.4-3.2-3.3-4.9c0.9-0.4,1.8-0.4,2.8-0.4
		c2.1,2.1,3.6,4.7,5.3,7c3,4,5.9,8.1,8.8,12.1C83.1,43.2,83.9,43.8,83.1,44.8z"/>
	<path class="st0" d="M51.4,79.6c3.8,5.3,7.6,10.6,11.4,15.8c0.6,0.8,1.1,1.7,1.4,2.7c-1.9-1.9-3.8-3.7-5.7-5.6
		c-0.4-0.4-0.7-1.1-1.5-0.8c-1.1-0.5-1.6-1.7-2.2-2.5c-1.6-2.1-3-4.2-4.7-6.3c-0.3-0.4-0.7-0.8-0.5-1.3C50,80.7,50.7,80.1,51.4,79.6
		z"/>
	<path class="st0" d="M71.2,23.3c1,2.8,3.1,4.8,4.8,7.1c5.7,8,11.5,15.9,17.3,23.8c0.2,0.2,0.3,0.4,0.5,0.5
		c-0.1,0.2-0.3,0.5-0.4,0.7c-0.1,0-0.2,0-0.3,0c-0.9,0.3-1.2-0.5-1.6-1C85,45.8,78.7,36.9,72.2,28.2c-0.8-1.1-1.6-2.2-2.4-3.3
		c-0.3-0.4-0.7-0.9-0.4-1.4c0.3-0.6,0.9-0.3,1.4-0.2C71,23.2,71.1,23.2,71.2,23.3z"/>
	<path class="st0" d="M47.5,102c-2.3-3.2-4.7-6.5-7-9.7c-0.3-0.4-0.5-0.7-1-0.7c0.7-1.1,1.7-1.9,2.6-2.7c0.3,0,0.5,0.1,0.7,0.3
		c2.5,3.1,5,6.2,7,9.7C49,99.9,48.3,101,47.5,102z"/>
	<path class="st0" d="M67.3,36.1C66,33.2,63.7,31,62,28.3c-0.6-0.9-1.2-1.8-1.7-2.8c0.8-0.6,1.7-0.9,2.7-1.1c0.6-0.2,1,0.2,1.3,0.6
		c2.3,3,4.6,6.1,6.7,9.2c0.3,0.4,0.6,0.9,0.3,1.4C69.9,35.9,68.6,36,67.3,36.1z"/>
	<path class="st0" d="M111.8,23.8c-0.6,0.8-0.1,1.4,0.4,2.1c1.7,2.3,3.3,4.7,5.1,6.9c0.8,1,1.4,2.1,1.9,3.3
		c-1.3-0.1-2.6-0.2-3.8-0.2c-1.5-0.9-2-2.6-3.1-3.9c-1.4-1.7-2.6-3.5-3.8-5.3c-0.4-0.5-1.1-1.1-0.1-1.8
		C109.4,24.3,110.6,24,111.8,23.8z"/>
	<path class="st0" d="M130,90.7c-1.4-2.9-3.6-5.3-5.4-7.9c-6.2-8.7-12.6-17.3-18.9-26c-0.3-0.5-0.4-0.9-0.4-1.4c0.4,0,0.8,0,1.2,0
		c4.5,5.9,8.7,12,13.1,17.9c3.5,4.7,6.9,9.5,10.3,14.2c0.4,0.6,1,1.2,1,2.1C130.6,90,130.3,90.4,130,90.7z"/>
	<path class="st0" d="M135.1,85.7c-1-2.8-3.2-4.9-4.8-7.3c-2.2-3.3-4.7-6.5-7.1-9.8c-0.5-0.7-0.9-1.4-0.9-2.3c2.3,2.3,4.7,4.6,7,6.9
		c3,3,5.1,6.5,7.5,10c0.2,0.3,0.1,0.6-0.1,0.9C136.2,84.8,135.7,85.3,135.1,85.7z"/>
	<path class="st0" d="M34.7,63.2c2.7,2.1,4.2,5.3,6.3,7.9c1.8,2.3,3.5,4.8,5.2,7.1c0.4,0.6,0.8,1.2,1.7,1.2c-0.5,1.2-1,1.5-2,0.4
		c-2.2-2.4-4.7-4.6-6.8-7.1C36.7,70.1,35.1,66.9,34.7,63.2z"/>
	<path class="st0" d="M70.9,23.3c-0.9,0-1.6,0.1-0.7,1.3c5.1,6.9,10.1,13.9,15.2,20.9c2.2,3,4.3,5.9,6.5,8.9c0.3,0.5,0.5,1,1.2,1.2
		c-0.2,0.4-0.5,0.8-0.9,0.9c-1.8-1.2-2.8-3.2-4-4.8c-1.3-1.7-2.4-3.4-3.7-5.1c0-0.8-1-1.1-1.2-1.8c-0.6-2.5-2.6-4.2-3.9-6.3
		c-3.5-5.2-7.6-9.9-10.7-15.2C69.3,23.1,70.1,23,70.9,23.3z"/>
	<path class="st0" d="M71.2,35.8c-2.4-4-5.2-7.8-8.2-11.3c0.8-0.5,1.8-0.7,2.8-0.8c1.7,1.1,2.4,3,3.6,4.6c1.8,2.2,3.4,4.6,5,7
		c0.3,0.5,1,0.9,0.3,1.6C73.5,36.5,72.3,36.1,71.2,35.8z"/>
	<path class="st0" d="M130.9,89.6c-4.9-6.8-9.9-13.6-14.8-20.3c-2.9-3.9-5.7-7.9-8.6-11.8c-0.5-0.6-0.9-1.2-1-2c0.4,0,0.8,0,1.2,0
		c1,2.8,3.2,4.9,4.9,7.3c6,8.5,12.2,16.9,18.4,25.3c0.2,0.3,0.5,0.5,0.8,0.8C131.4,89.1,131.1,89.4,130.9,89.6z"/>
	<path class="st0" d="M138.9,63.6c1.8,0.8,2.4,2.7,3.6,4.1c1.6,1.9,3,4,4.5,6c-0.5,0.8-1.1,1.4-1.9,1.9c-0.7,0.5-1.1,0-1.4-0.5
		c-2-2.7-4-5.5-6-8.3c-0.3-0.4-0.4-0.8-0.2-1.3C137.9,65,138.4,64.3,138.9,63.6z"/>
	<path class="st0" d="M152.1,101.2c-1.8-0.8-2.4-2.5-3.5-3.9c-2.9-3.8-5.6-7.7-8.4-11.5c-0.2-0.3-0.7-0.6-1-0.9
		c0.3-0.5,0.6-1.1,1.3-0.4c3.9,4.2,8.7,7.7,10.7,13.4C151.6,99,152.1,100.1,152.1,101.2z"/>
	<path class="st0" d="M46.3,38c2.1,2.9,4.2,5.9,6.3,8.8c0.4,0.5,0.8,1,1.5,1c-0.7,0.9-1.4,1.7-2.3,2.3c-0.7,0.2-1.1-0.2-1.5-0.7
		c-2.1-3-4.5-5.9-6.5-9.1C44.6,39.4,45.4,38.7,46.3,38z"/>
	<path class="st0" d="M38.2,46.5c0.3-0.8,0.8-1.4,1.5-1.9c0.6-0.4,1-0.1,1.3,0.4c2.3,3,4.6,6,6.7,9.2c0.1,0.2,0.1,0.4,0.1,0.6
		c-0.3,0.8-0.5,1.6-0.8,2.4c-0.4,0.9-1.1,0.7-1.5,0.1c-2.6-3.4-5.2-6.7-7.4-10.3C38.1,46.8,38.1,46.7,38.2,46.5z"/>
	<path class="st0" d="M47.8,54.7c-2.3-2.5-4.1-5.4-6.1-8.1c-0.6-0.7-0.9-1.7-2-2c0.6-0.9,1.4-1.7,2.3-2.3c0.8-0.2,1.1,0.5,1.5,1
		c2.2,2.9,4.3,5.8,6.5,8.8C49.2,52.9,48.5,53.8,47.8,54.7z"/>
	<path class="st0" d="M108.7,39.9c-0.5,0.8-1.2,1.4-1.9,1.9c-1.9-1.5-2.9-3.7-4.3-5.5c-1.2-1.5-2.2-3-3.3-4.4
		c0.7-0.9,1.4-1.7,2.3-2.3c0.8-0.2,1.2,0.4,1.5,0.9c1.8,2.5,3.7,5.1,5.5,7.6C108.8,38.6,109.3,39.2,108.7,39.9z"/>
	<path class="st0" d="M79.3,139.6c-2.6-2.9-4.6-6.2-7-9.4c-0.3-0.5-0.3-0.9,0-1.4c0.8-0.3,1.6-0.6,2.3-0.9c2.7,3.2,5,6.7,7.4,10.1
		C81.2,138.8,80.3,139.3,79.3,139.6z"/>
	<path class="st0" d="M49.8,98.9c-2.5-2.5-4.2-5.7-6.4-8.3c-0.5-0.5-0.8-1.1-1.2-1.7c0.6-0.9,1.5-1.6,2.3-2.3c2.6,3,4.7,6.3,7.1,9.5
		c0.2,0.3,0.1,0.6,0.2,0.9C51.2,97.7,50.5,98.4,49.8,98.9z"/>
	<path class="st0" d="M136.7,130.7c-2.3-2.3-3.9-5.1-5.8-7.6c-0.6-0.8-1.2-1.6-2.1-2.2c0.5-0.8,1.2-1.4,1.9-1.9
		c0.6-0.4,1.1-0.1,1.5,0.4c2.2,2.8,4.4,5.7,6.3,8.7c0.1,0.2,0.1,0.5,0,0.7C138,129.5,137.4,130.1,136.7,130.7z"/>
	<path class="st0" d="M86.6,62c-2.2-3-4.5-6.1-6.7-9.2c-0.3-0.4-0.4-0.8-1-0.8c0.5-0.8,1.2-1.4,1.9-1.9c0.7-0.5,1.1,0,1.4,0.4
		c2.2,2.8,4.2,5.7,6.3,8.5c0.2,0.3,0.4,0.7,0,1C88,60.8,87.4,61.5,86.6,62z"/>
	<path class="st0" d="M81.7,121.4c0.7-1.2,1.3-1.4,2.4-0.2c2.1,2.2,4.2,4.4,6.4,6.4c1.2,1.1,1.4,1.8,0,2.8c-0.4,0.3-0.8,0.7-1.2,1
		c-0.6,0.4-1,0.1-1.3-0.3c-2.1-3-4.4-5.8-6.3-8.9C81.6,122,81.6,121.7,81.7,121.4z"/>
	<path class="st0" d="M49.9,52c-2-1.2-2.9-3.5-4.4-5.2c-1.2-1.5-2.3-3-3.5-4.5c0.5-0.8,1.2-1.4,1.9-1.9c2.4,2.1,3.8,5,5.7,7.4
		c0.7,0.8,1.1,1.9,2.2,2.4C51.3,50.8,50.7,51.5,49.9,52z"/>
	<path class="st0" d="M116.9,103.9c-2.5-3.4-4.5-7.2-7.7-10.1c0.7-0.7,1.3-1.3,1.9-1.9c0.7-0.5,1.1,0,1.4,0.4c2.1,2.7,4,5.4,6,8.2
		c0.3,0.4,0.5,0.9,0.3,1.4C118.3,102.8,117.6,103.4,116.9,103.9z"/>
	<path class="st0" d="M38.2,46.5c2.4,3.3,4.9,6.7,7.3,10c0.4,0.6,0.8,1,1.5,0.5c-0.2,1.5-0.5,3.1,0.1,4.6c-1.6-0.5-2-2-2.9-3.2
		c-2.4-3.1-4.7-6.2-7-9.4c-0.1-0.2-0.1-0.5-0.2-0.7C37.2,47.7,37.7,47.1,38.2,46.5z"/>
	<path class="st0" d="M108.3,24.9c-0.4,0.6,0.1,0.9,0.3,1.3c2.2,3.2,4.8,6.1,6.7,9.6c-0.9,0.3-1.8,0.6-2.8,0.9c-2.5-3-4.7-6.3-7-9.6
		c-0.2-0.3-0.2-0.6-0.1-0.9C106.4,25.6,107.3,25.2,108.3,24.9z"/>
	<path class="st0" d="M81.7,121.4c2.2,3.1,4.4,6.1,6.5,9.2c0.3,0.4,0.6,0.8,1.2,0.8c-0.5,0.8-1.2,1.4-1.9,1.9
		c-0.7,0.2-1.1-0.3-1.4-0.7c-2.1-2.7-4.1-5.5-6.1-8.2c-0.2-0.3-0.4-0.7-0.2-1.1C80.3,122.7,81,122.1,81.7,121.4z"/>
	<path class="st0" d="M137.4,65.6c2.3,3.2,4.6,6.4,6.9,9.6c0.1,0.2,0.6,0.2,0.8,0.4c-0.6,0.9-1.4,1.7-2.3,2.3
		c-1.7-1.4-2.6-3.4-4-5.1c-1.3-1.6-2.4-3.3-3.7-4.9C135.8,67,136.6,66.3,137.4,65.6z"/>
	<path class="st0" d="M51.7,96.9c-2.3-3.1-4.5-6.3-6.8-9.4c-0.2-0.3-0.3-0.7-0.5-1c0.5-0.8,1.2-1.4,1.9-1.9
		c2.5,3.4,5.3,6.6,7.3,10.4C53.2,95.8,52.3,96.3,51.7,96.9z"/>
	<path class="st0" d="M104.8,43.8c-0.5,1-1,0.9-1.7,0.1c-2.3-2.3-4.5-4.7-6.9-6.9c-1.1-1-1.2-1.6,0-2.5c0.5-0.3,0.9-0.7,1.3-1.1
		c0.9-0.2,1.2,0.6,1.6,1.1c1.9,2.5,3.7,5.1,5.5,7.5C105,42.6,105.4,43.2,104.8,43.8z"/>
	<path class="st0" d="M104.8,43.8c0.2-1.4-1.1-2-1.7-2.9c-1.8-2.5-3.5-5.2-5.6-7.5c0.4-0.6,0.9-1.2,1.6-1.6c0.4,0,0.8,0.1,1,0.5
		c2.2,3.2,4.8,6.1,6.7,9.5C106.1,42.5,105.5,43.2,104.8,43.8z"/>
	<path class="st0" d="M108.7,39.9c-0.1-1.7-1.5-2.6-2.4-3.8c-1.6-2.2-3-4.6-4.9-6.5c0.6-0.9,1.4-1.5,2.3-2c2.7,3.2,5.2,6.5,7.3,10.1
		C110.3,38.4,109.5,39.2,108.7,39.9z"/>
	<path class="st0" d="M77.3,24.5c0,1.4,1,2.3,1.8,3.3c5.4,7.5,10.9,14.9,16.3,22.4c0.4,0.6,0.8,1.2,1.5,1.5
		c-0.3,0.3-0.6,0.6-0.9,0.9c-6.6-9-13.1-18-19.7-27c-0.3-0.5-0.6-1-0.9-1.5C76.2,23.6,76.7,24.7,77.3,24.5z"/>
	<path class="st0" d="M79.7,123.3c2.1,3,4.3,5.9,6.4,8.9c0.3,0.4,0.8,0.8,1.3,1.2c-0.4,1-1.5,1.1-2,1.9c-0.5,0.1-0.8-0.2-1.1-0.6
		c-2-2.7-3.9-5.4-5.9-8c-0.4-0.5-0.8-1-0.3-1.7C78.7,124.4,79.2,123.9,79.7,123.3z"/>
	<path class="st0" d="M138.6,128.8c-2.1-3-4.3-6-6.4-9c-0.4-0.5-0.8-0.8-1.4-0.9c0.5-0.8,1.2-1.4,1.9-1.9c0.7-0.2,1.1,0.2,1.5,0.6
		c2.2,3,4.6,5.8,6.4,9.1C139.9,127.5,139.3,128.2,138.6,128.8z"/>
	<path class="st0" d="M88.6,60.1c-2.1-3.4-4.7-6.5-7-9.7c-0.1-0.2-0.5-0.2-0.7-0.2c0.5-0.8,1.2-1.4,1.9-1.9c0.8-0.2,1.2,0.4,1.5,0.9
		c1.8,2.5,3.7,5,5.5,7.6c0.4,0.6,0.6,1.1,0.4,1.8C89.8,59.1,89.2,59.6,88.6,60.1z"/>
	<path class="st0" d="M49.5,81.5c2.6,3.3,5.2,6.6,7.4,10.2c-0.3,0.6-0.8,1-1.3,1.4c-0.6,0.5-1,0.1-1.3-0.3C52,89.9,50,87,47.9,84.1
		c-0.2-0.3-0.3-0.7,0-1.1C48.3,82.4,48.8,81.9,49.5,81.5z"/>
	<path class="st0" d="M47.9,83c2.4,3.5,4.5,7.2,7.7,10c-0.5,0.8-1.2,1.4-1.9,1.9c-2.7-3-4.8-6.4-7.2-9.7c-0.1-0.2,0-0.5-0.1-0.8
		C46.9,84.1,47.4,83.6,47.9,83z"/>
	<path class="st0" d="M139.6,102.8c2.3,1.3,3.3,3.7,4.8,5.7c1.9,2.6,4,5,5.4,7.9c0,0.5-0.3,0.8-0.7,1.2c-1.1,0.3-1.5-0.6-2-1.2
		c-2.4-3.2-4.7-6.5-7.1-9.7C139.9,105.4,139.8,104.1,139.6,102.8z"/>
	<path class="st0" d="M135.2,67.9c0.3,0.1,0.7,0.2,0.8,0.4c2.3,3.2,4.9,6.2,6.8,9.7c-0.4,0.6-0.9,1.2-1.6,1.6
		c-1.1-0.4-1.6-1.4-2.2-2.3c-1.8-2.6-3.9-5-5.5-7.7C134.1,68.9,134.6,68.4,135.2,67.9z"/>
	<path class="st0" d="M111,37.7c-2.8-3.1-5.3-6.5-7.3-10.1c0.5-0.6,1.2-1,1.9-1.3c2.1,2.9,4.1,5.8,6.2,8.8c0.4,0.5,0.7,1,0.8,1.7
		C112.1,37.1,111.6,37.4,111,37.7z"/>
	<path class="st0" d="M90.2,58.4c-0.7-1.8-2-3.2-3.1-4.7c-1.4-1.8-2.4-4-4.3-5.5c0.4-0.6,0.9-1.2,1.5-1.6c0.9,0,1.1,0.8,1.5,1.3
		c2.1,2.9,4.2,5.8,6.2,8.6C91.4,57.2,90.8,57.8,90.2,58.4z"/>
	<path class="st0" d="M133.5,69.5c2.4,2,3.8,4.9,5.7,7.2c0.7,0.9,1.3,1.9,2,2.8c-0.5,0.8-1.2,1.4-1.9,1.9c-2.3-2.9-4.4-6.1-6.7-9.1
		c-0.3-0.4-0.6-0.8-0.6-1.4C132.5,70.5,133,70,133.5,69.5z"/>
	<path class="st0" d="M78.2,124.9c1.2,2.8,3.4,4.9,5,7.5c0.7,1,1.5,1.9,2.2,2.9c-0.4,0.8-1.1,1.2-1.8,1.7c-0.6-0.1-0.9-0.6-1.3-1.1
		c-1.9-2.5-3.7-5.1-5.6-7.5c-0.3-0.4-0.8-0.9-0.6-1.5C76.8,126.2,77.5,125.6,78.2,124.9z"/>
	<path class="st0" d="M66.5,67.1c2,1.3,3,3.4,4.4,5.2c0.8,1,1.4,2.1,2.5,2.9c-0.6,1-1.5,1.6-2.3,2.3c-0.9,0.1-1.2-0.6-1.6-1.2
		c-1-1.2-1.8-2.7-2.9-3.8C66.3,70.7,66.3,68.9,66.5,67.1z"/>
	<path class="st0" d="M132,71c2.7,2.9,4.7,6.4,7.2,9.5c0.2,0.2,0.1,0.6,0.1,0.9c-0.3,0.5-0.7,0.9-1.2,1.2c-0.6,0.2-1-0.2-1.3-0.6
		c-2.1-2.9-4.2-5.8-6.3-8.7c-0.2-0.2-0.2-0.5-0.1-0.7C131,72.1,131.5,71.6,132,71z"/>
	<path class="st0" d="M140.6,126.8c-2.3-2.2-3.9-5.1-5.8-7.6c-0.6-0.8-1.2-1.6-2.1-2.2c0.4-0.6,0.9-1.2,1.5-1.6
		c0.6-0.4,1.1-0.1,1.5,0.4c2.2,2.8,4.3,5.7,6.4,8.7c0.2,0.2,0.1,0.5,0,0.7C141.6,125.8,141.1,126.3,140.6,126.8z"/>
	<path class="st0" d="M76.2,126.8c2.5,3.4,4.9,6.8,7.4,10.2c-0.5,0.4-1,0.7-1.5,1.1c-1.3-0.3-1.6-1.5-2.1-2.3
		c-1.8-2.6-4.1-4.8-5.3-7.8C75.2,127.6,75.7,127.2,76.2,126.8z"/>
	<path class="st0" d="M118.8,102c-2-3.4-4.6-6.4-6.9-9.7c-0.2-0.2-0.6-0.2-0.8-0.4c0.5-0.5,1.1-1,1.6-1.5c1.1-0.6,1.4,0.5,1.9,1.1
		c2,2.6,3.7,5.3,5.8,7.8c0.1,0.2,0.2,0.3,0.3,0.5C120.4,100.8,119.6,101.4,118.8,102z"/>
	<path class="st0" d="M140.1,106.7c1.8,0.8,2.4,2.7,3.6,4.1c1.9,2.2,3.1,5,5.5,6.8c-0.7,0.6-0.7,1.8-1.7,2.2
		c-2.9-3.4-5.3-7.2-8-10.8C139.9,108.2,139.5,107.3,140.1,106.7z"/>
	<path class="st0" d="M137.3,112.4c0.4-0.5,0.8-1,1.2-1.5c0.9-0.5,1.3,0.3,1.6,0.8c2.3,2.9,4.4,5.9,6.6,8.9c-0.5,0.8-1.2,1.4-2,2
		C142,119.5,139.6,116,137.3,112.4z"/>
	<path class="st0" d="M137.3,112.4c1.8,1.4,2.9,3.5,4.2,5.4c1.1,1.6,2.6,2.9,3.3,4.9c-0.3,0.5-0.6,0.8-1.1,1.1
		c-0.5,0.2-0.9-0.1-1.1-0.5c-2.3-3.1-4.7-6.1-6.8-9.3C136.3,113.5,136.8,112.9,137.3,112.4z"/>
	<path class="st0" d="M135.8,114c2.5,2,3.8,4.9,5.8,7.3c0.7,0.8,1.1,1.9,2.1,2.5c-0.4,0.6-0.9,1.2-1.6,1.6c-2.2-3-4.4-5.9-6.5-8.9
		c-0.4-0.5-0.7-0.9-1.3-0.9C134.6,114.9,135.2,114.4,135.8,114z"/>
	<path class="st0" d="M146.8,120.6c-1.6-0.7-2.2-2.4-3.2-3.6c-1.4-1.8-2.8-3.6-4.1-5.5c-0.2-0.3-0.5-0.6-0.9-0.6
		c0.3-0.7,0.6-1.3,0.9-1.9c1.6,0.6,2.2,2.2,3.1,3.5c1.7,2.4,3.7,4.5,4.9,7.3C147.2,120,147,120.3,146.8,120.6z"/>
	<path class="st0" d="M66.5,72.6c1.9,0.4,2.1,2.5,3.3,3.6c0.4,0.4,0.7,1,1.2,1.4c-1.3,1.8-3.3,2.8-4.5,4.7
		C66.3,79,66.3,75.8,66.5,72.6z"/>
	<path class="st0" d="M130.5,72.6c2.1,2.9,4.3,5.7,6.4,8.6c0.4,0.5,0.7,1.1,1.3,1.4c-0.4,0.6-0.9,1.2-1.5,1.5
		c-1.6-3.4-4.3-6.1-6.3-9.2c-0.4-0.5-0.7-1.1-1-1.6C129.7,73.1,130.1,72.8,130.5,72.6z"/>
	<path class="st0" d="M100.6,48c-1.5-2.2-2.9-4.3-4.5-6.4c-0.7-0.8-1.1-1.7-1.3-2.7c2.3,2.2,4.7,4.4,6.9,6.8
		C103,47,101.1,47.3,100.6,48z"/>
	<path class="st0" d="M86.3,116.8c0.8,1.9,2.2,3.4,3.4,5.1c0.8,1,1.5,2.1,1.6,3.4c-1.7-1.7-3.5-3.4-5.2-5.1
		C84.3,118.4,84.3,118.4,86.3,116.8z"/>
	<path class="st0" d="M75.5,109.5c0.8,0,1.5-0.1,2.3-0.1c0.9,0,1.8,0,2.7,0c1,0,2.1,0,3.1,0c1.2,0,2.3,0,3.5,0
		c2.1-1.1,4.2-0.9,6.2,0l0,0c-0.1,0.3-0.1,0.6-0.4,0.7c-0.6-0.5-1.3-0.3-2-0.3c-4.5,0-9,0-13.4,0C76.7,109.7,76.1,109.9,75.5,109.5z
		"/>
	<path class="st0" d="M104.6,55.5c-0.4,0-0.9,0.1-1.3,0.1c-0.8,0-1.6,0-2.3,0c-1,0.7-2.1,0.5-3.1,0.4c-1.2,0-1.9,0.3-2.3,1.4
		c-0.7-0.6-1.4-1.3-2-1.9C97.2,55.1,100.9,55.2,104.6,55.5z"/>
	<path class="st0" d="M80.4,79.8c0.8-4.7,3.5-7.8,7.8-9.6c3.6,4.6,6.9,9.4,10.3,14.1c1.4,1.9,2.8,3.7,4.1,5.6c0.3,0.5,1,0.9,0.7,1.7
		c-3.2,3.6-7.3,4.9-12,4.2c-3.5-4.8-6.9-9.6-10.5-14.4C80.4,80.9,80.1,80.4,80.4,79.8z"/>
	<path class="st0" d="M103.3,91.6c-4.8-6.6-9.7-13.2-14.5-19.8c-0.3-0.4-0.4-1.1-0.7-1.6c0.7-0.5,1.4-0.8,2.3-0.8
		c1.1-0.4,1.8-0.1,2.5,0.8c4,5.4,7.9,10.9,11.9,16.3c0.5,0.7,0.9,1.4,0.4,2.3C104.9,89.9,104.2,90.8,103.3,91.6z"/>
	<path class="st0" d="M95.6,57.4C95,56,95.3,55.3,97,55.5c1.3,0.1,2.7,0.1,4,0.1c1.3,3.2,3.7,5.7,5.6,8.4c2.7,3.8,5.5,7.6,8.2,11.3
		c0.5,0.7,0.9,1.4,0.8,2.3c-1.7-1.7-3.3-3.4-5-5.1c-4.6-4.6-9.3-9.1-13.9-13.7C96.3,58.4,95.8,58.1,95.6,57.4z"/>
	<path class="st0" d="M105.3,88.8c0.1-1.1-0.7-1.8-1.2-2.5c-3.8-5.2-7.6-10.3-11.3-15.5c-0.6-0.8-1.1-1.6-2.3-1.4
		c1.4-0.6,2.9-0.4,4.3-0.3c0.7,0.2,1.3,0.3,1.8,1c2.9,4.3,6,8.4,9,12.5c0.7,0.9,1.4,1.9,0.9,3.2C106.3,86.9,105.9,87.9,105.3,88.8z"
		/>
	<path class="st0" d="M93.3,109.4c-2.1,0.2-4.2,0.2-6.2,0c-0.9-2.5-2.8-4.2-4.2-6.3c-2.3-3.4-4.9-6.7-7.3-10.1
		c-0.3-0.4-0.7-0.8-0.3-1.4C81.3,97.5,87.3,103.4,93.3,109.4z"/>
	<path class="st0" d="M80.4,79.8c2.6,3.6,5.2,7.1,7.6,10.7c1.2,1.7,2.9,3.1,3.3,5.3C83.6,94.5,78.3,86.7,80.4,79.8z"/>
	<path class="st0" d="M106.4,85.8c0.1-2.3-1.8-3.4-2.9-5c-2.4-3.7-5.1-7.2-7.6-10.8c-0.3-0.5-0.9-0.4-1.2-0.9c2.2,0,4,0.8,5.8,2
		c1.8,2.8,3.7,5.5,5.8,8.1C106.8,81.4,107.4,83.6,106.4,85.8z"/>
	<path class="st0" d="M120.4,99.3c-0.9,0-1.3-0.7-1.7-1.3c-1.6-2.3-3.3-4.6-4.9-6.8c-0.3-0.4-0.6-0.7-1.1-0.7
		c0.4-0.6,0.8-1.2,1.5-1.6c1-0.5,1.4,0.3,1.8,0.8c1.6,2,3,4,4.4,6.1C120.6,97,120.6,98.1,120.4,99.3z"/>
	<path class="st0" d="M116.2,86.9c1-1.1,2-2.3,3.1-3.4c0.2-0.2,0.5-0.7,0.9-0.5c0.4,0.2,0.3,0.7,0.3,1c0,2.5-0.1,5-0.1,7.4
		c-0.4,0.4-0.9,0.2-1.2-0.1C118.1,90,116.7,88.8,116.2,86.9z"/>
	<path class="st0" d="M116.2,86.9c1,1.2,2,2.4,2.9,3.7c0.4,0.5,0.7,0.9,1.3,0.9c0.2,1.4,0.2,2.8,0,4.3c-2.1-1.5-3-3.9-4.6-5.8
		c-0.5-0.5-0.8-1.2-1.6-1.2C114.8,88.2,115.5,87.6,116.2,86.9z"/>
	<path class="st0" d="M106.4,79.1c-1.8-0.5-2.3-2.3-3.3-3.6c-1.1-1.3-2.4-2.6-2.5-4.5C103.7,73,105.8,75.5,106.4,79.1z"/>
</g>
<g>
	<path class="st1" d="M185.5,25.3h11.4v109.5h-11.4V25.3z"/>
	<path class="st1" d="M211.8,21.7l80.7,87.9V25.3H304v113.4l-80.7-88v84.2h-11.4V21.7z"/>
	<path class="st1" d="M340.7,35.1h-29.2v-9.7h69.7v9.7h-29.1v99.8h-11.4V35.1z"/>
	<path class="st1" d="M388.6,25.3h30.9c2,0,4.4,0.1,7.3,0.3c2.9,0.2,5.6,0.5,8.2,1c6,1.1,11.6,3.1,16.9,6c5.2,2.9,9.8,6.7,13.7,11.2
		c3.9,4.6,7,9.9,9.2,16c2.2,6.1,3.4,12.7,3.4,20c0,6.8-1,13.1-3.1,18.9s-4.9,11-8.5,15.6s-7.9,8.5-12.8,11.7c-5,3.2-10.3,5.5-16,7
		c-2.6,0.7-5.4,1.2-8.3,1.4c-3,0.2-6.2,0.3-9.7,0.3h-31.2V25.3z M419.3,125.1c3.1,0,6-0.1,8.7-0.3c2.7-0.2,5.2-0.6,7.5-1.2
		c4.6-1.2,8.9-3.1,12.7-5.8c3.8-2.7,7.1-5.9,9.9-9.7c2.8-3.7,4.9-8,6.4-12.7c1.5-4.7,2.3-9.8,2.3-15.1c0-5.9-0.8-11.3-2.4-16.2
		c-1.6-4.9-3.8-9.2-6.7-13c-2.9-3.8-6.4-6.9-10.4-9.4c-4.1-2.5-8.5-4.3-13.4-5.4c-2.1-0.5-4.5-0.8-7.2-1s-5.2-0.2-7.4-0.2h-19.2v90
		H419.3z"/>
	<path class="st1" d="M488,125.1h67.5v9.7h-67.4L488,125.1z M488.1,25.3h67.4v9.7h-67.4V25.3z M488.1,73.7h64.7v9.8h-64.7V73.7z"/>
	<path class="st1" d="M598.5,136.3c-7.1,0-13.7-1.3-19.9-4c-6.2-2.7-11.6-6.9-16.2-12.6l8.2-6.9c3.2,4.2,7.3,7.6,12.1,10.1
		c4.9,2.5,10.2,3.8,16.1,3.8c3.5,0,6.7-0.6,9.6-1.7c2.9-1.1,5.3-2.7,7.3-4.7c2-2,3.6-4.2,4.7-6.9s1.6-5.5,1.6-8.5
		c0-2.8-0.5-5.2-1.5-7.3c-1-2.1-2.3-3.9-4-5.5c-1.7-1.6-3.6-3-5.9-4.1c-2.3-1.2-4.7-2.2-7.2-3.2l-12.9-5c-3-1.2-5.9-2.5-8.7-4.1
		c-2.8-1.6-5.2-3.5-7.3-5.7c-2.1-2.2-3.8-4.8-5.1-7.8c-1.3-3-1.9-6.4-1.9-10.4c0-4,0.8-7.6,2.5-11.1c1.7-3.4,3.9-6.4,6.8-8.9
		s6.2-4.5,10.1-5.9s8.1-2.2,12.6-2.2c6.5,0,11.9,0.9,16.3,2.8c4.3,1.9,8.4,4.4,12.2,7.8l-6.9,7.9c-2.9-2.8-6.1-4.9-9.6-6.4
		c-3.4-1.5-7.5-2.2-12-2.2c-2.9,0-5.6,0.4-8.1,1.3c-2.4,0.9-4.6,2.1-6.4,3.8c-1.9,1.7-3.3,3.6-4.4,5.8c-1.1,2.2-1.6,4.6-1.6,7.2
		c0,2.4,0.5,4.6,1.4,6.4c0.9,1.8,2.1,3.5,3.6,4.9c1.5,1.4,3.3,2.7,5.3,3.8s4.2,2.1,6.5,3l12.5,5c3.2,1.3,6.3,2.7,9.3,4.4
		c3,1.7,5.7,3.7,8,6c2.3,2.3,4.2,5.1,5.6,8.3c1.4,3.2,2.1,7,2.1,11.4c0,4.4-0.9,8.6-2.7,12.4c-1.8,3.8-4.2,7.2-7.4,10
		s-6.8,5.1-11.1,6.7S603.3,136.3,598.5,136.3z"/>
	<path class="st1" d="M666,35.1h-29.2v-9.7h69.7v9.7h-29.1v99.8H666V35.1z"/>
	<path class="st1" d="M766.6,136.5c-8.2,0-15.8-1.5-22.7-4.4c-6.9-3-12.9-7-17.9-12.1c-5-5.1-8.9-11.1-11.8-17.9
		c-2.9-6.9-4.3-14.1-4.3-21.8c0-7.7,1.5-15,4.4-21.9c2.9-6.9,6.9-12.8,12-17.9c5.1-5.1,11.1-9.2,18-12.2s14.3-4.5,22.3-4.5
		c7.9,0,15.2,1.4,21.8,4.2c6.6,2.8,12.5,6.6,17.6,11.4l-6.9,7.8c-4.2-3.8-9-7-14.4-9.7c-5.4-2.6-11.5-4-18.2-4
		c-6.7,0-12.8,1.3-18.3,3.8c-5.5,2.5-10.3,5.9-14.2,10.2s-7,9.2-9.2,14.9c-2.2,5.7-3.3,11.6-3.3,17.8c0,6.3,1.1,12.2,3.4,17.8
		c2.2,5.6,5.4,10.5,9.4,14.8c4,4.2,8.8,7.6,14.3,10.1c5.5,2.5,11.6,3.7,18.2,3.7c6.8,0,12.9-1.2,18.2-3.7s10-5.5,14.2-9.2l6.4,7.7
		c-5.2,4.8-11.1,8.5-17.6,11.1C781.5,135.2,774.4,136.5,766.6,136.5z"/>
	<path class="st1" d="M866,33.7c-5,0.4-9.7,1.7-14,3.7c-5.6,2.5-10.3,5.9-14.3,10.2s-7.1,9.2-9.3,14.9c-2.2,5.7-3.4,11.6-3.4,17.8
		c0,6.3,1.1,12.2,3.4,17.8c2.2,5.6,5.3,10.5,9.3,14.7c4,4.2,8.7,7.5,14.2,10c4.3,2,9,3.1,14.1,3.6v9.7c-6.3-0.4-12.3-1.8-17.9-4.1
		c-6.9-2.8-12.9-6.8-18-11.8c-5.1-5.1-9.1-11-12.1-17.8s-4.4-14.2-4.4-22.2c0-7.8,1.5-15.1,4.5-22c3-6.9,7.1-12.8,12.2-17.9
		c5.1-5.1,11.1-9.1,18-12.1c5.6-2.4,11.5-3.8,17.7-4.2V33.7z M871.8,126.5c6.2-0.2,11.8-1.4,16.8-3.6c5.5-2.4,10.3-5.7,14.2-9.9
		c4-4.2,7-9.1,9.2-14.7c2.1-5.6,3.2-11.6,3.2-18c0-6.6-1.1-12.8-3.2-18.5c-2.1-5.7-5.2-10.6-9.1-14.8c-3.9-4.2-8.6-7.5-14.1-9.9
		c-5.1-2.2-10.8-3.4-17-3.6v-9.8c7.4,0.2,14.4,1.6,20.8,4.2c6.9,2.9,12.9,6.8,17.9,11.9c5.1,5.1,9,11,11.9,17.9
		c2.9,6.9,4.3,14.3,4.3,22.2c0,8.1-1.5,15.6-4.4,22.4c-2.9,6.9-6.9,12.8-11.9,17.9c-5.1,5.1-11,9-17.8,11.8
		c-6.4,2.6-13.4,4-20.7,4.2V126.5z"/>
	<path class="st1" d="M938.5,25.3H950v109.5h-11.4V25.3z"/>
	<path class="st1" d="M964.9,21.7l80.7,87.9V25.3h11.4v113.4l-80.7-88v84.2h-11.4V21.7z"/>
</g>
</svg>
